<svg width="75" height="78" viewBox="0 0 75 78" fill="none" xmlns="http://www.w3.org/2000/svg">
<path d="M31.2562 23.9062H10.637C10.2079 30.0465 13.3469 35.5061 14.9179 37.8204C17.664 35.1502 24.9642 28.2371 31.2562 23.9062Z" fill="white"/>
<path d="M69.2074 20.8073L67.7889 22.6985C67.6665 22.8608 67.583 23.0492 67.545 23.2489C67.507 23.4487 67.5155 23.6545 67.5698 23.8505C67.6219 24.0442 67.7178 24.2233 67.8503 24.3739C67.9827 24.5245 68.148 24.6426 68.3334 24.7191C68.8787 24.9703 69.4986 25.0064 70.0693 24.8204C70.2441 24.7721 70.4036 24.6797 70.5324 24.5521C70.6612 24.4244 70.7551 24.2659 70.8051 24.0915C70.9711 23.5555 70.8136 22.948 70.6821 22.7727L69.2074 20.8073Z" fill="white"/>
<path d="M68.7634 8.18723C68.9015 8.34992 69.027 8.5161 69.1452 8.68394C69.7441 8.30192 70.186 7.71757 70.3904 7.03724C70.4553 6.84175 70.4725 6.63352 70.4403 6.43004C70.4082 6.22655 70.3277 6.03375 70.2056 5.86782C70.0824 5.69522 69.9197 5.5547 69.7309 5.45807C69.5422 5.36144 69.333 5.31152 69.121 5.3125H67.8792C67.527 5.3125 67.1892 5.17257 66.9401 4.9235C66.691 4.67443 66.5511 4.33662 66.5511 3.98438C66.5507 3.63226 66.4106 3.29467 66.1617 3.04569C65.9127 2.7967 65.5751 2.65665 65.223 2.65625H63.8948C63.5426 2.65625 63.2048 2.51632 62.9557 2.26725C62.7066 2.01818 62.5667 1.68037 62.5667 1.32812C62.5663 0.976006 62.4263 0.638421 62.1773 0.389435C61.9283 0.140449 61.5907 0.000395467 61.2386 0H59.9105V5.40132C60.3506 5.3415 60.7944 5.31183 61.2386 5.3125C64.6107 5.3125 67.1424 6.27971 68.7634 8.18723Z" fill="white"/>
<path d="M36.6827 47.3417C42.4752 47.037 47.7181 44.2216 52.2663 38.9745C56.1431 34.5015 57.6018 30.8444 56.4849 28.3981C55.4934 26.2263 51.6859 23.9062 43.9729 23.9062H36.3248C29.8847 27.2505 19.9234 36.668 16.722 39.7745C19.5416 42.0496 27.6359 47.8191 36.6827 47.3417Z" fill="white"/>
<path d="M69.2073 17.2656H74.0439C73.774 16.6506 73.3683 16.1047 72.8572 15.669C72.346 15.2334 71.7428 14.9192 71.0928 14.7502C70.4788 14.5806 69.8443 14.4968 69.2073 14.5011V17.2656Z" fill="white"/>
<path d="M58.9011 27.2941C60.5046 30.806 58.9476 35.321 54.2734 40.7137C49.2298 46.5332 43.3524 49.6559 36.8044 49.9953C36.4001 50.0162 35.9982 50.0265 35.5986 50.0263C24.8264 50.0263 15.9198 42.6537 14.1522 41.0899L8.65894 40.1743C12.3926 51.9845 20.3609 65.0781 37.3323 65.0781C37.4042 65.0781 44.8064 64.9993 52.2097 60.2012C56.5297 57.4014 60.02 53.5528 62.5833 48.7628C65.681 42.9735 67.431 35.7721 67.8002 27.3497C67.6383 27.2985 67.4762 27.2394 67.3141 27.1724C66.7543 26.9388 66.2554 26.5803 65.8552 26.1245C65.4551 25.6686 65.1643 25.1274 65.0052 24.5421C64.846 23.9568 64.8226 23.3429 64.9367 22.7472C65.0509 22.1515 65.2996 21.5897 65.6639 21.1047L66.8868 19.4743C66.6705 19.232 66.551 18.9185 66.5511 18.5938V13.2812C66.5511 12.9742 66.6574 12.6767 66.8521 12.4392C67.0467 12.2017 67.3176 12.0391 67.6187 11.9789C67.63 11.9767 67.6775 11.9676 67.755 11.9551C66.9636 8.69922 63.8593 7.96875 61.2386 7.96875C56.3755 7.96875 54.5124 12.6645 52.7401 18.3373C52.2651 19.857 51.8627 21.1419 51.3653 22.1058C51.7773 22.2117 52.1884 22.3294 52.5955 22.4617C55.7894 23.4998 57.911 25.1258 58.9011 27.2941ZM62.5667 11.9531C62.8294 11.9531 63.0862 12.031 63.3046 12.177C63.523 12.3229 63.6932 12.5303 63.7937 12.773C63.8942 13.0157 63.9206 13.2827 63.8693 13.5404C63.8181 13.798 63.6916 14.0346 63.5058 14.2204C63.3201 14.4061 63.0834 14.5326 62.8258 14.5839C62.5682 14.6351 62.3011 14.6088 62.0584 14.5083C61.8158 14.4078 61.6083 14.2375 61.4624 14.0191C61.3165 13.8007 61.2386 13.5439 61.2386 13.2812C61.2386 12.929 61.3785 12.5912 61.6276 12.3421C61.8766 12.0931 62.2145 11.9531 62.5667 11.9531Z" fill="white"/>
<path d="M3.59798 30.8125C3.84684 30.9992 4.0223 31.2672 4.09375 31.57C4.1652 31.8728 4.12811 32.191 3.98895 32.4692C3.98463 32.4782 3.21996 34.0857 3.85613 35.3658C4.29624 36.2527 5.36223 36.8728 7.02504 37.2086L11.8737 38.0176C10.0073 34.9528 7.48723 29.5687 8.00669 23.458L0.0105464 20.46C-0.0709673 23.1303 0.246953 28.2992 3.59798 30.8125Z" fill="white"/>
<path d="M47.817 72.4528C47.6866 72.1923 47.4743 71.9819 47.2126 71.8539C46.9509 71.7259 46.6544 71.6875 46.3687 71.7444L40.8353 72.8511L38.8819 67.6432C37.9698 67.7305 37.4147 67.7343 37.332 67.7343C36.9077 67.7343 36.4876 67.7245 36.0703 67.7096L38.1964 73.3789L33.0875 74.4007C32.9164 74.4349 32.7538 74.5025 32.6089 74.5995C32.464 74.6966 32.3396 74.8212 32.2428 74.9663C32.1461 75.1115 32.0789 75.2742 32.045 75.4453C32.0112 75.6164 32.0114 75.7925 32.0456 75.9636C32.0798 76.1346 32.1473 76.2972 32.2444 76.4421C32.3414 76.5871 32.4661 76.7114 32.6112 76.8082C32.7563 76.9049 32.9191 76.9722 33.0902 77.006C33.2613 77.0399 33.4374 77.0397 33.6084 77.0055L45.8949 74.5484L46.7695 76.2974C46.8467 76.4548 46.9542 76.5953 47.086 76.7109C47.2177 76.8266 47.3711 76.9149 47.5371 76.971C47.7032 77.0271 47.8787 77.0497 48.0536 77.0376C48.2285 77.0255 48.3992 76.9789 48.556 76.9005C48.7128 76.8221 48.8525 76.7135 48.967 76.5808C49.0816 76.4482 49.1688 76.2942 49.2236 76.1277C49.2784 75.9612 49.2996 75.7855 49.2862 75.6107C49.2727 75.4359 49.2248 75.2656 49.1452 75.1094L47.817 72.4528Z" fill="white"/>
</svg>
