<svg id="Solid" height="512" viewBox="0 0 512 512" width="512" xmlns="http://www.w3.org/2000/svg"><path d="m104.434 391.49 5.333 16h21.29l-8-16z"/><path d="m129.508 245.623c3.222-7.779.61-16.7-7.166-24.477-2.61-2.61-4.87-5.216-7.055-7.735-7.272-8.383-12.075-13.921-23.7-13.921a23.854 23.854 0 0 0 -11.824 3.19 197.652 197.652 0 0 0 3.024 32.82c1.739 10.278 4 19.88 6.142 27.83a23.684 23.684 0 0 0 2.663.158c22.499.002 34.338-9.228 37.916-17.865z"/><path d="m169.6 178.688 19.2 14.4a8 8 0 0 1 3.167 5.675c.029.307 3.25 32.121 22.5 41.017 12.64 5.843 30.376.9 52.716-14.686 5.025-4.114 17.425-16.78 17.223-28.288-.1-5.464-3.108-10.345-9.206-14.919-7.229-5.42-11.278-12.054-12.034-19.718-.583-5.905.9-12.156 4.383-18.681h-34.886l-47.347 7.891a7.961 7.961 0 0 1 -2.446.028l-22.87-3.265v11.348a24.1 24.1 0 0 0 9.6 19.198z"/><path d="m373.666 135.49h5.391l-8.457-16.923-21.681-4.337 2.468 6.173a23.886 23.886 0 0 0 22.279 15.087z"/><path d="m407.222 104c-6.974 1.564-13.642 13.084-15.793 18.461a7.951 7.951 0 0 1 -.5 1l8.223 16.446a8 8 0 0 1 -7.152 11.583h-18.334a39.828 39.828 0 0 1 -27.532-10.945l-7.6 2.534a8 8 0 0 1 -2.53.411h-8.877c-.294 35.7 4.171 61.514 12.2 69.763a6.137 6.137 0 0 0 4.673 2.237c20.437 0 26.433 8.784 30.824 17.781 2.452 5.025 3.035 6.219 9.176 6.219 7.67 0 14.128-3.228 19.218-9.578 4.895-19.95 12.907-33.753 23.914-41.123a35.117 35.117 0 0 1 4.474-2.545c-2-9-6.7-18.98-14.26-30.314-6.515-9.773-9.907-27.238-10.124-51.93z"/><path d="m423.557 114.471c.873 15.43 3.334 26.932 7.1 32.581 8.935 13.388 14.351 25.106 16.7 36.259a18.5 18.5 0 0 1 2.616.425c.188.048.375.1.559.164l12.406 4.136a8.019 8.019 0 0 0 9.187-3.152l2.558-3.838a8.033 8.033 0 0 0 -.551-9.607c-12.193-14.385-33.913-39.639-50.575-56.968z"/><path d="m352.434 391.49 5.333 16h21.29l-8-16z"/><path d="m360.446 240.288c-2.677-5.486-4.294-8.8-16.445-8.8a22.2 22.2 0 0 1 -16.134-7.074c-8.01-8.224-17.183-28.992-16.741-80.926h-24.347c-5.412 6.663-8.128 12.665-7.689 17.11.3 3.057 2.169 5.834 5.71 8.489 12.692 9.519 15.492 20.208 15.6 27.5.337 21.524-20.975 39.2-23.406 41.148-.134.106-.27.209-.41.306-19.114 13.381-36.151 20.1-50.887 20.1a42.258 42.258 0 0 1 -18.012-3.864c-23.032-10.7-29.562-40.015-31.182-50.406l-16.503-12.381a40.175 40.175 0 0 1 -16-32v-13.634l-16.556-2.365c-17.351.115-29.578 5.6-37.365 16.759-4.437 6.36-7.448 14.66-9.023 24.677a39.416 39.416 0 0 1 10.535-1.437c18.922 0 27.879 10.326 35.782 19.437 2 2.309 4.072 4.7 6.282 6.906 12.395 12.4 16.37 28.064 10.634 41.913-6.89 16.634-26.162 27.14-50.577 27.716 1.08 3.3 1.772 5.2 1.8 5.264a8.043 8.043 0 0 1 .469 2.15l6.816 88.614h17.203v-64.913a8 8 0 0 1 2.595-5.9c35.913-32.908 70.9-38.354 98.527-15.335 18.24 15.2 42.5 22.325 72.117 21.169a166 166 0 0 0 18.093-1.723 51.453 51.453 0 0 1 -7.116-9.06 70.7 70.7 0 0 1 -7.977-18.3 8 8 0 0 1 15.517-3.9c.09.349 6.869 25.959 24.244 25.959v.008a7.992 7.992 0 0 1 7.961 7.2l6.479 64.8h17.56v-72a7.717 7.717 0 0 1 2.241-5.93 7.209 7.209 0 0 1 5.567-2.086c1.717-.327 16.375-4.261 23.27-42.868a39.511 39.511 0 0 1 -15.078 2.879c-16.135 0-20.6-9.148-23.554-15.202z"/><path d="m168 327.1a61.457 61.457 0 0 0 14.481-5.807l3.858 3.858a8 8 0 0 0 11.32-11.319l-2.04-2.04a91.575 91.575 0 0 0 11.625-12.892c-24.516-16.95-51.634-1.949-71.244 15.248v13.3a79.249 79.249 0 0 0 16 1.648v4.394a8 8 0 0 0 16 0"/><path d="m77.143 151.109a54.746 54.746 0 0 1 4.2-5.292 53.26 53.26 0 0 0 -19.763 10.749c-14.32 12.419-21.58 32.243-21.58 58.924v80a8 8 0 0 0 16 0v-80c0-18.232 3.784-32.211 11.233-41.715a68.361 68.361 0 0 1 9.91-22.666z"/></svg>