<?xml version="1.0"?>
<svg xmlns="http://www.w3.org/2000/svg" xmlns:xlink="http://www.w3.org/1999/xlink" xmlns:svgjs="http://svgjs.com/svgjs" version="1.1" width="512" height="512" x="0" y="0" viewBox="0 0 512 512" style="enable-background:new 0 0 512 512" xml:space="preserve" class=""><g><g xmlns="http://www.w3.org/2000/svg"><path d="m463.54 172.34v302.67c0 4.14-3.35 7.5-7.5 7.5h-400.58c-4.15 0-7.5-3.36-7.5-7.5v-302.67c0-1.93.74-3.78 2.07-5.18l76.23-79.9c.66-.69 1.44-1.25 2.31-1.65l124.31-56.78c1.98-.9 4.25-.9 6.23 0l124.31 56.78c.87.4 1.66.96 2.33 1.66l75.74 79.91c1.32 1.39 2.05 3.24 2.05 5.16z" fill="#fc4747" data-original="#fc4762" style="" class=""/><path d="m463.54 172.34v302.67c0 4.14-3.35 7.5-7.5 7.5h-15.39v-278.12c-21.11-17.75-50.18-44.88-77.05-79.1-21.35-7.41-63.76-23.55-107.6-48.3-43.85 24.76-86.26 40.89-107.61 48.3-39.43 50.23-83.64 85.19-100.43 97.63v-50.58c0-1.93.74-3.78 2.07-5.18l76.23-79.9c.66-.69 1.44-1.25 2.31-1.65l124.31-56.78c1.98-.9 4.25-.9 6.23 0l124.31 56.78c.87.4 1.66.96 2.33 1.66l75.74 79.91c1.32 1.39 2.05 3.24 2.05 5.16z" fill="#c42d5c" data-original="#c42d5c" style="" class=""/><path d="m386.166 214.403h-259.818c-4.142 0-7.5 3.358-7.5 7.5v270.604c0 4.142 3.358 7.5 7.5 7.5h259.818c4.142 0 7.5-3.358 7.5-7.5v-270.604c0-4.142-3.358-7.5-7.5-7.5z" fill="#ffffff" data-original="#ffffff" style="" class=""/><path d="m155.926 251.278h200.141v241.229h-200.141z" fill="#9b5a46" data-original="#9b5a46" style=""/><g><path d="m356.066 243.778h-200.14c-4.142 0-7.5 3.358-7.5 7.5v241.229c0 4.142 3.358 7.5 7.5 7.5h200.141c4.142 0 7.5-3.358 7.5-7.5v-241.229c-.001-4.142-3.358-7.5-7.501-7.5zm-11.358 15-38.553 90.269-38.553-90.269zm-100.317 0-38.553 90.269-38.553-90.269zm-80.965 29.157 34.256 80.208-34.256 80.208zm.655 197.073 41.757-97.769 41.757 97.769zm84.169-36.656-34.257-80.209 34.257-80.208zm15-161.57 34.749 81.361-34.749 81.361zm1.148 198.226 41.757-97.769 41.757 97.769zm84.168-36.656-34.257-80.208 34.257-80.208z" fill="#ba7b58" data-original="#ba7b58" style=""/></g><g fill="#c42d5c"><path d="m185.982 143.992c-4.142 0-7.5 3.358-7.5 7.5v33.264c0 4.142 3.358 7.5 7.5 7.5s7.5-3.358 7.5-7.5v-33.264c0-4.142-3.358-7.5-7.5-7.5z" fill="#c42d5c" data-original="#c42d5c" style="" class=""/><path d="m325.837 143.992c-4.142 0-7.5 3.358-7.5 7.5v33.264c0 4.142 3.358 7.5 7.5 7.5s7.5-3.358 7.5-7.5v-33.264c0-4.142-3.358-7.5-7.5-7.5z" fill="#c42d5c" data-original="#c42d5c" style="" class=""/></g><g><path d="m512 474.48v30.02c0 4.14-3.36 7.5-7.5 7.5h-497c-4.14 0-7.5-3.36-7.5-7.5v-30.02c0-4.14 3.36-7.5 7.5-7.5h67.826c8.4 0 16.28-3.07 22.16-8.65 11.87-11.25 32.86-17.97 56.17-17.97s44.3 6.72 56.17 17.97c5.88 5.58 13.75 8.65 22.16 8.65h272.514c4.14 0 7.5 3.36 7.5 7.5z" fill="#dff0f7" data-original="#dff0f7" style="" class=""/><path d="m512 474.48v15.5h-280.014c-8.41 0-16.28-3.07-22.16-8.65-11.87-11.25-32.86-17.97-56.17-17.97s-44.3 6.72-56.17 17.97c-5.88 5.58-13.76 8.65-22.16 8.65h-75.326v-15.5c0-4.14 3.36-7.5 7.5-7.5h67.826c8.4 0 16.28-3.07 22.16-8.65 11.87-11.25 32.86-17.97 56.17-17.97s44.3 6.72 56.17 17.97c5.88 5.58 13.75 8.65 22.16 8.65h272.514c4.14 0 7.5 3.36 7.5 7.5z" fill="#c5dbe8" data-original="#c5dbe8" style="" class=""/></g><path d="m510.68 183.16-9.83 14.32-8.2 11.95c-1.12 1.64-2.85 2.77-4.81 3.13-1.95.37-3.98-.06-5.62-1.19-2.41-1.65-58.98-40.86-106.48-103.07-17.9-5.98-69.18-24.4-119.74-54.42-50.57 30.02-101.85 48.44-119.75 54.42-47.49 62.21-104.07 101.42-106.48 103.07-1.26.87-2.74 1.32-4.25 1.32-.46 0-.91-.04-1.37-.13-1.96-.36-3.69-1.49-4.81-3.13l-8.2-11.95-9.83-14.33c-2.33-3.41-1.47-8.07 1.93-10.42.56-.38 56.53-39.42 99.88-98.34l3.13-4.27c.96-1.3 2.32-2.26 3.86-2.73l5.06-1.54c.67-.2 68.31-21.14 128.27-59.25l8.53-5.43c2.46-1.56 5.59-1.56 8.05 0l8.54 5.43c60.13 38.23 127.59 59.05 128.26 59.26l5.06 1.53c1.55.47 2.9 1.43 3.86 2.73l3.13 4.27c43.34 58.92 99.33 97.96 99.89 98.35 3.4 2.35 4.26 7.01 1.92 10.42z" fill="#dff0f7" data-original="#dff0f7" style="" class=""/><g><path d="m220.75 118.225h70v66.535h-70z" fill="#ffd071" data-original="#ffd071" style="" class=""/><path d="m290.75 110.725h-70c-4.142 0-7.5 3.358-7.5 7.5v66.535c0 4.142 3.358 7.5 7.5 7.5h70c4.142 0 7.5-3.358 7.5-7.5v-66.535c0-4.142-3.358-7.5-7.5-7.5zm-7.5 33.518h-20v-18.518h20zm-35-18.518v18.518h-20v-18.518zm-20 33.518h20v18.017h-20zm35 18.017v-18.017h20v18.017z" fill="#ffffff" data-original="#ffffff" style="" class=""/></g><path d="m500.85 197.48-8.2 11.95c-1.12 1.64-2.85 2.77-4.81 3.13-1.95.37-3.98-.06-5.62-1.19-2.41-1.65-58.98-40.86-106.48-103.07-17.9-5.98-69.18-24.4-119.74-54.42-50.57 30.02-101.85 48.44-119.75 54.42-47.49 62.21-104.07 101.42-106.48 103.07-1.26.87-2.74 1.32-4.25 1.32-.46 0-.91-.04-1.37-.13-1.96-.36-3.69-1.49-4.81-3.13l-8.2-11.95c11.87-8.48 65.95-48.73 111.55-109.14 17.92-5.88 76.34-26.36 133.31-60.89 56.96 34.53 115.39 55.01 133.3 60.89 45.6 60.41 99.68 100.66 111.55 109.14z" fill="#c5dbe8" data-original="#c5dbe8" style="" class=""/></g></g></svg>
