<?xml version="1.0"?>
<svg xmlns="http://www.w3.org/2000/svg" xmlns:xlink="http://www.w3.org/1999/xlink" xmlns:svgjs="http://svgjs.com/svgjs" version="1.1" width="512" height="512" x="0" y="0" viewBox="0 0 60 60" style="enable-background:new 0 0 512 512" xml:space="preserve" class=""><g><g xmlns="http://www.w3.org/2000/svg" id="Page-1" fill="none" fill-rule="evenodd"><g id="047---Wine-Vinyard" fill-rule="nonzero" transform="translate(-1)"><path id="Shape" d="m60 50v9h-20.13c3.39-5.25 11-9 19.63-9z" fill="#f5ff85" data-original="#e8edfc" style="" class=""/><path id="Shape" d="m59.5 50c-.85 0-1.68 0-2.5.12v8.88h3v-9z" fill="#fcf2ca" data-original="#cad9fc" style="" class=""/><path id="Shape" d="m60 42v8h-.5c-8.61 0-16.24 3.75-19.63 9h-8.87c1.75-5.07 5.7-9.45 11-12.5 5.3403117-3.0023822 11.3737999-4.5538506 17.5-4.5z" fill="#f5ff85" data-original="#e8edfc" style="" class=""/><path id="Shape" d="m59.5 50h.5v-8h-.5c-.84 0-1.68 0-2.5.08v7.92h-.5" fill="#fcf2ca" data-original="#cad9fc" style="" class=""/><path id="Shape" d="m60 34v8h-.5c-6.1262001-.0538506-12.1596883 1.4976178-17.5 4.5-5.27 3-9.22 7.43-11 12.5h-8.29c.14-.61.31-1.21.5-1.81.9560342-3.0062526 2.4132164-5.8293318 4.31-8.35 1.5837852-2.1432153 3.4241589-4.0843394 5.48-5.78 3.0144314-2.4604146 6.3865511-4.4465931 10-5.89v1.83c0 1.1045695.8954305 2 2 2s2-.8954305 2-2v-3.23c1.6423519-.4797148 3.312022-.8603996 5-1.14v2.37c0 1.1045695.8954305 2 2 2s2-.8954305 2-2v-2.87c1.15-.08 2.32-.13 3.5-.13z" fill="#f5ff85" data-original="#e8edfc" style="" class=""/><path id="Shape" d="m59.5 42h.5v-8h-.5c-.84 0-1.67 0-2.5.08v7.92h-.5" fill="#fcf2ca" data-original="#cad9fc" style="" class=""/><path id="Shape" d="m23.21 57.19c-.19.6-.36 1.2-.5 1.81h-20.71v-13h.5c9.73 0 18.24 4.8 20.71 11.19z" fill="#f5ff85" data-original="#e8edfc" style="" class=""/><path id="Shape" d="m2.5 46h-.5v.11c8.66.74 16 5.24 18.21 11.07-.19.6-.36 1.2-.5 1.81h3c.14-.61.31-1.21.5-1.81-2.47-6.38-10.98-11.18-20.71-11.18z" fill="#fcf2ca" data-original="#cad9fc" style="" class=""/><path id="Shape" d="m27.52 48.84c-1.8967836 2.5206682-3.3539658 5.3437474-4.31 8.35-2.47-6.39-10.98-11.19-20.71-11.19h-.5v-8h.5c1.19 0 2.36 0 3.5.16 9.09.84 16.91 4.91 21.52 10.68z" fill="#f5ff85" data-original="#e8edfc" style="" class=""/><path id="Shape" d="m6 38.17c-1.14-.12-2.31-.17-3.5-.17h-.5v.08l1 .07c9.09.83 16.91 4.9 21.52 10.67-1.2112255 1.633262-2.2469459 3.3896293-3.09 5.24.7383532.946648 1.3377368 1.9938857 1.78 3.11.9560342-3.0062526 2.4132164-5.8293318 4.31-8.35-4.61-5.75-12.43-9.82-21.52-10.65z" fill="#fcf2ca" data-original="#cad9fc" style="" class=""/><path id="Shape" d="m33 43.06c-2.0663846 1.6938094-3.9169055 3.6350091-5.51 5.78-4.58-5.77-12.4-9.84-21.49-10.67-1.14-.12-2.31-.17-3.5-.17h-.5v-8h.5c.84 0 1.67 0 2.5.07 1.35.07 2.69.21 4 .39 5.2816824.7485078 10.3724236 2.4963289 15 5.15 1.7588314 1.0253795 3.4310482 2.1925868 5 3.49 1.4419024 1.2056264 2.7799433 2.530287 4 3.96z" fill="#f5ff85" data-original="#e8edfc" style="" class=""/><path id="Shape" d="m29 39.1c-1.5689518-1.2974132-3.2411686-2.4646205-5-3.49-4.6275764-2.6536711-9.7183176-4.4014922-15-5.15-1.31-.18-2.65-.32-4-.39-.83-.07-1.66-.07-2.5-.07h-.5v.06c1.35.07 2.69.21 4 .39 5.2816824.7485078 10.3724236 2.4963289 15 5.15 1.7588314 1.0253795 3.4310482 2.1925868 5 3.49 1.4435627 1.2183489 2.7816511 2.5564373 4 4-1.4717824 1.2177354-2.8398233 2.5556727-4.09 4 .56.57 1.09 1.16 1.58 1.77 1.5918162-2.1520181 3.4423878-4.0999882 5.51-5.8-1.2200567-1.429713-2.5580976-2.7543736-4-3.96z" fill="#fcf2ca" data-original="#cad9fc" style="" class=""/><path id="Shape" d="m29 21h-24l12-9z" fill="#f5ff85" data-original="#e8edfc" style="" class=""/><path id="Shape" d="m29 21v18.1c-1.5689518-1.2974132-3.2411686-2.4646205-5-3.49v-9.61h-15v4.46c-1.31-.18-2.65-.32-4-.39v-9.07z" fill="#f5ff85" data-original="#e8edfc" style="" class=""/><path id="Shape" d="m39.53 21h-10.53l-12-9h16l6 4.51c.0138668 1.5114233.1915719 3.0168879.53 4.49z" fill="#fcf2ca" data-original="#cad9fc" style="" class=""/><path id="Shape" d="m24 26v9.61c-4.6275764-2.6536711-9.7183176-4.4014922-15-5.15v-4.46z" fill="#faca7f" data-original="#7facfa" style="" class=""/><path id="Shape" d="m51 16c.0999066 2.651182-.4134146 5.289653-1.5 7.71-.5274215 1.1618376-1.4004605 2.132657-2.5 2.78-1.2467954.6793643-2.7532046.6793643-4 0-1.54-.83-2.8-2.68-3.47-5.49-.3384281-1.4731121-.5161332-2.9785767-.53-4.49 0-.17 0-.34 0-.51 0-9.85 6-15 6-15 1.9978131 1.9261483 3.5359087 4.2777255 4.5 6.88 1.0045543 2.5887168 1.5133945 5.3432385 1.5 8.12z" fill="#f5ff85" data-original="#e8edfc" style="" class=""/><path id="Shape" d="m49.5 7.88c-.9640913-2.6022745-2.5021869-4.9538517-4.5-6.88-.5422672.50286213-1.0438368 1.04790111-1.5 1.63 1.2586297 1.58897049 2.2700374 3.35893399 3 5.25 1.0045543 2.5887168 1.5133945 5.3432385 1.5 8.12.0999066 2.651182-.4134146 5.289653-1.5 7.71-.5274215 1.1618376-1.4004605 2.132657-2.5 2.78-.1618401.0867517-.3288162.1635607-.5.23.4774005.1887215.9866651.2837843 1.5.28.698924.0007099 1.3867614-.1746886 2-.51 1.0995395-.647343 1.9725785-1.6181624 2.5-2.78 1.0865854-2.420347 1.5999066-5.058818 1.5-7.71.0133945-2.7767615-.4954457-5.5312832-1.5-8.12z" fill="#fcf2ca" data-original="#cad9fc" style="" class=""/><path id="Shape" d="m43 26.49v10.68c-3.6134489 1.4434069-6.9855686 3.4295854-10 5.89-1.2183489-1.4435627-2.5564373-2.7816511-4-4v-18.06h10.53c.67 2.81 1.93 4.66 3.47 5.49z" fill="#fcf2ca" data-original="#cad9fc" style="" class=""/><path id="Shape" d="m47 26.49v12.51c0 1.1045695-.8954305 2-2 2s-2-.8954305-2-2v-12.51c1.2467954.6793643 2.7532046.6793643 4 0z" fill="#faca7f" data-original="#7facfa" style="" class=""/><path id="Shape" d="m60 16c0 5.67-1.67 9.24-4 10.49-1.2467954.6793643-2.7532046.6793643-4 0-1.0995395-.647343-1.9725785-1.6181624-2.5-2.78 1.0865854-2.420347 1.5999066-5.058818 1.5-7.71.0133945-2.7767615-.4954457-5.5312832-1.5-8.12.9640913-2.6022745 2.5021869-4.9538517 4.5-6.88 0 0 6 5.15 6 15z" fill="#fcf2ca" data-original="#cad9fc" style="" class=""/><path id="Shape" d="m54 1c-.5454647.49966709-1.047286 1.04497957-1.5 1.63 2.9772624 3.8149945 4.5646126 8.5311882 4.5 13.37 0 5.67-1.67 9.24-4 10.49-.1618401.0867517-.3288162.1635607-.5.23.4774005.1887215.9866651.2837843 1.5.28.698924.0007099 1.3867614-.1746886 2-.51 2.33-1.25 4-4.82 4-10.49 0-9.85-6-15-6-15z" fill="#ffdb4e" data-original="#a4c2f7" style="" class=""/><path id="Shape" d="m56 26.49v10.51c0 1.1045695-.8954305 2-2 2s-2-.8954305-2-2v-10.51c1.2467954.6793643 2.7532046.6793643 4 0z" fill="#faca7f" data-original="#7facfa" style="" class=""/><path id="Shape" d="m25 3v4c0 .55228475-.4477153 1-1 1h-2.59c-.2623399-.00110462-.5137394-.10525584-.7-.29l-2.71-2.71 2.71-2.71c.1862606-.18474416.4376601-.28889538.7-.29h2.59c.5522847 0 1 .44771525 1 1z" fill="#f5ff85" data-original="#e8edfc" style="" class=""/><path id="Shape" d="m5 21v9c.51 0 2.1 0 3 .06v-9.06z" fill="#ffffff" data-original="#ffffff" style="" class=""/><path id="Shape" d="m2 30v29h3v-28.93c-.9-.07-2.49-.07-3-.07z" fill="#ffffff" data-original="#ffffff" style="" class=""/><path id="Rectangle-path" d="m9.8 13.4h8v2h-8z" fill="#ffffff" transform="matrix(.8 -.6 .6 .8 -5.88 11.16)" data-original="#ffffff" style="" class=""/><g fill="#428dff"><path id="Shape" d="m60.06 41h-.56c-6.3021745-.0616121-12.5097471 1.5351135-18 4.63-.3108211.1786328-.5027321.5095174-.5034421.8680127s.1898889.6901375.5.87.692621.1806201 1.0034421.0019873c5.1845622-2.924326 11.0478929-4.4315469 17-4.37h.44c.5522847.0331371 1.0268629-.3877153 1.06-.94s-.3877153-1.0268629-.94-1.06z" fill="#fd7700" data-original="#428dff" style="" class=""/><path id="Shape" d="m36.32 49.42c-2.807714 2.524412-4.9507742 5.701224-6.24 9.25-.1052634.2578795-.0982025.5479764.0194824.8004293.1176848.2524529.3353284.4443834.6005176.5295707.0996432.0119472.2003568.0119472.3 0 .4272885.0025692.809-.2666378.95-.67 1.1686028-3.2435507 3.1277252-6.1444268 5.7-8.44.2625902-.2429406.3756263-.6075172.2965287-.9563973-.0790977-.3488801-.3383122-.6290605-.68-.735-.3416879-.1059395-.7139385-.0215433-.9765287.2213973z" fill="#fd7700" data-original="#428dff" style="" class=""/><path id="Shape" d="m60.06 49h-.56c-8.73 0-16.76 3.71-20.5 9.46-.2974116.4640673-.1632328 1.0812901.3 1.38.1609536.1039672.3483884.1595034.54.16.3399921-.0005664.6564045-.1738399.84-.46 3.32-5.11 10.88-8.54 18.82-8.54h.44c.5522847.0331371 1.0268629-.3877153 1.06-.94s-.3877153-1.0268629-.94-1.06z" fill="#fd7700" data-original="#428dff" style="" class=""/><path id="Shape" d="m2.06 39h.44c1.1353202-.0046788 2.27013648.0487244 3.4.16h.1c.55228473.0276142 1.0223857-.3977153 1.04999994-.95.02761423-.5522847-.39771522-1.0223857-.94999994-1.05-1.38042667-.1610365-2.77128228-.2145309-4.16-.16-.55228474.0331371-.97313707.5077153-.93999999 1.06.03313709.5522847.50771525.9731371 1.05999999.94z" fill="#fd7700" data-original="#428dff" style="" class=""/><path id="Shape" d="m13.82 15.4c-.5522847 0-1-.4477153-1-1s.4477153-1 1-1 1 .4477153 1 1-.4477153 1-1 1z" fill="#fd7700" data-original="#428dff" style="" class=""/><path id="Shape" d="m61 16c0-10.19-6.09-15.54-6.35-15.76-.374224-.32008772-.925776-.32008772-1.3 0-1.5771457 1.49286915-2.8772482 3.25342459-3.84 5.2-.9692968-1.94779947-2.2761792-3.70836644-3.86-5.2-.374224-.32008772-.925776-.32008772-1.3 0-3.8475951 3.78827081-6.1014294 8.90411701-6.3 14.3l-4.45-3.34h-.1c-.0603432-.0359437-.1239619-.0660789-.19-.09h-.2l-.11-.11h-15v-4.59l2 2c.3733503.37558779.8804232.58776721 1.41.59h2.59c1.1045695 0 2-.8954305 2-2v-4c0-1.1045695-.8954305-2-2-2h-2.59c-.5295768.00223279-1.0366497.21441221-1.41.59l-2.41 2.41h-4.18l1.3-1.29c.2536586-.25365857.3527235-.62337399.2598781-.96987805-.0928455-.34650405-.363496-.61715453-.7100001-.71000001-.346504-.09284548-.7162194.00621948-.969878.25987806l-3 3c-.0910406.09510371-.1624056.20724868-.21.33-.10001802.24346136-.10001802.51653864 0 .76.0475944.12275132.1189594.23489629.21.33l3 3c.1877666.18931265.4433625.29579832.71.29579832s.5222334-.10648567.71-.29579832c.1893127-.1877666.2957983-.44336246.2957983-.71s-.1064856-.5222334-.2957983-.71l-1.3-1.29h2.59v6 .07.2l.06.17c.0309304.0539637.0678287.1042796.11.15.0382481.0601504.0854591.1141058.14.16v.05l9.69 7.2h-18l3.2-2.4c.4418278-.3313708.5313708-.9581722.2-1.4s-.9581722-.5313708-1.4-.2l-5.6 4.2c-.25180584.1888544-.4.4852427-.4.8v8c-.68621574-.035193-1.37378426-.035193-2.06 0-.55228474.0331371-.97313707.5077153-.93999999 1.06.03313709.5522847.50771525.9731371 1.05999999.94h.44c.89 0 1.69 0 2.45.07 1.22.06 2.5.19 3.91.38 5.1470912.7343708 10.110076 2.4305379 14.63 5 1.7127868.9994901 3.3414844 2.1365685 4.87 3.4 1.1507067.9747347 2.2332441 2.0272016 3.24 3.15-1.4987735 1.3040074-2.8776256 2.7397539-4.12 4.29-4.0920365-4.4139369-9.3805302-7.541167-15.22-9-.5357162-.143594-1.086406.1742838-1.23.71s.1742838 1.086406.71 1.23c5.602184 1.3789084 10.6587352 4.414233 14.51 8.71-1.2729866 1.8015768-2.3396682 3.7403882-3.18 5.78-3.54-5.83-11.59-9.72-20.57-9.72h-.56c-.55228474.0331371-.97313707.5077153-.93999999 1.06.03313709.5522847.50771525.9731371 1.05999999.94h.44c9 0 17.16 4.31 19.66 10.29-.15.49-.3 1-.42 1.48-.1252036.535421.2053656 1.0714792.74 1.2.0763581.0097276.1536419.0097276.23 0 .4736615.0126631.8911882-.3088324 1-.77 1.5549002-6.0908128 5.0685128-11.5017762 10-15.4 2.5250932-2.057199 5.3129379-3.7689154 8.29-5.09v.29c0 1.6568542 1.3431458 3 3 3s3-1.3431458 3-3v-2.46c1.0133333-.2666667 2.0133333-.4966667 3-.69v1.15c0 1.6568542 1.3431458 3 3 3s3-1.3431458 3-3v-1.92c.87 0 1.71-.08 2.5-.08h.44c.3572656.0214359.6988285-.1493554.8960254-.4480385s.2200687-.6798809.06-1c-.1600687-.320119-.4787598-.5305256-.8360254-.5519615-1.0200366-.0476976-2.0420663-.0309977-3.06.05v-6c2.55-1.75 4-5.72 4-11.05zm-7-13.58c3.2857327 3.75433798 5.0666643 8.591348 5 13.58 0 4.85-1.3 8.44-3.47 9.61-.9539068.5192883-2.1060932.5192883-3.06 0-.773056-.4663205-1.4054296-1.1332501-1.83-1.93.8794656-2.1182521 1.3412664-4.386509 1.36-6.68.2729969-.0286468.5443384.0674658.7384363.2615637s.2902105.4654394.2615637.7384363v4c0 .5522847.4477153 1 1 1s1-.4477153 1-1v-7c-.0248952-.2720885.0724355-.5411659.2656348-.7343652s.4622767-.29053.7343652-.2656348c.5522847 0 1-.4477153 1-1s-.4477153-1-1-1c-.340422.001195-.6783068.0586354-1 .17v-1.17c0-.5522847-.4477153-1-1-1s-1 .4477153-1 1v4.17c-.3216932-.1113646-.659578-.168805-1-.17-.0805635-2.4313797-.5463529-4.8345832-1.38-7.12.8057329-2.0001037 1.9490209-3.84695348 3.38-5.46zm-9 0c3.2873899 3.7533537 5.0685641 8.5910226 5 13.58 0 6-2 10-5 10s-5-4-5-10c-.0714218-4.9894661 1.7101177-9.82812744 5-13.58zm-23.59.58h2.59v4h-2.59l-2-2zm-1.41 10h12.67l5.33 4c.0288989 1.00497.1224254 2.0070397.28 3h-9zm8 9v15.06c-.9655864-.716897-1.9668695-1.3844191-3-2v-9.06c0-.5522847-.4477153-1-1-1h-15c-.55228475 0-1 .4477153-1 1v3.34c-.69-.09-1.36-.15-2-.2v-7.14zm-5 11.92c-4.0799411-2.1087722-8.4673173-3.5599812-13-4.3v-2.62h13zm10.14 7.8c-.9789712-1.0872348-2.0278677-2.1094078-3.14-3.06v-16.66h8.76c.4704344 1.9907108 1.6151971 3.75732 3.24 5v9.49c-3.16986 1.3473428-6.1487397 3.105756-8.86 5.23zm11.86-1.72c-.5522847 0-1-.4477153-1-1v-11.11c.6585984.1466815 1.3414016.1466815 2 0v11.11c0 .5522847-.4477153 1-1 1zm3-5.52v-7.48c.5748561-.4028647 1.0841708-.8919417 1.51-1.45.4133541.5621523.9168102 1.0520927 1.49 1.45v6.79c-1 .21-2 .43-3 .69zm6 3.52c-.5522847 0-1-.4477153-1-1v-9.11c.6585984.1466815 1.3414016.1466815 2 0v9.11c0 .5522847-.4477153 1-1 1z" fill="#fd7700" data-original="#428dff" style="" class=""/><path id="Shape" d="m44 18v4c0 .5522847.4477153 1 1 1s1-.4477153 1-1v-7c-.0248952-.2720885.0724355-.5411659.2656348-.7343652s.4622767-.29053.7343652-.2656348c.5522847 0 1-.4477153 1-1s-.4477153-1-1-1c-.340422.001195-.6783068.0586354-1 .17v-1.17c0-.5522847-.4477153-1-1-1s-1 .4477153-1 1v4.17c-.3216932-.1113646-.659578-.168805-1-.17-.5522847 0-1 .4477153-1 1s.4477153 1 1 1c.2729969-.0286468.5443384.0674658.7384363.2615637s.2902105.4654394.2615637.7384363z" fill="#fd7700" data-original="#428dff" style="" class=""/></g></g></g></g></svg>
