<svg width="279" height="206" viewBox="0 0 279 206" fill="none" xmlns="http://www.w3.org/2000/svg">
<path d="M278.205 125.031C273.285 127.031 268.115 128.911 264.925 131.161L189.415 184.201C183.623 188.38 177.589 192.214 171.345 195.681C166.255 198.431 163.345 203.681 157.185 205.081C154.122 205.613 150.987 205.558 147.945 204.921C142.979 204.111 138.094 202.87 133.345 201.211C132.755 201.011 131.935 200.891 131.675 201.451C87.6747 195.451 45.5847 179.451 1.95468 171.141C1.44521 171.047 0.98021 170.789 0.629731 170.408C0.279252 170.026 0.0622802 169.541 0.0115057 169.025C-0.0392689 168.509 0.0789061 167.991 0.348221 167.549C0.617537 167.106 1.02341 166.763 1.50468 166.571C5.15661 165.278 8.92872 164.353 12.7647 163.811C19.7647 162.521 26.6747 161.261 33.6547 160.121C47.7222 157.684 61.9252 156.108 76.1847 155.401C99.8647 154.401 123.755 156.931 147.185 153.261C169.415 149.811 190.405 140.901 211.115 132.031C216.115 129.891 221.195 127.671 225.115 123.911C228.175 120.971 230.645 117.071 234.555 115.131C238.465 113.191 243.555 113.481 247.915 113.681C256.584 114.271 265.206 115.427 273.725 117.141C275.318 119.734 276.811 122.364 278.205 125.031Z" fill="url(#paint0_linear)"/>
<path d="M3.90469 156.271L102.745 113.271C104.884 112.192 107.301 111.791 109.675 112.121L231.925 122.511C234.265 122.841 233.845 132.901 231.925 134.511L159.745 196.031C157.565 197.941 154.959 199.301 152.146 199.997C149.333 200.693 146.394 200.705 143.575 200.031L4.7747 166.291C3.0047 165.861 2.24469 157.101 3.90469 156.271Z" fill="#5F8BAE"/>
<path d="M3.90469 156.271L102.745 113.271C104.884 112.192 107.301 111.791 109.675 112.121L231.925 122.511C234.265 122.841 233.845 132.901 231.925 134.511L159.745 196.031C157.565 197.941 154.959 199.301 152.146 199.997C149.333 200.693 146.394 200.705 143.575 200.031L4.7747 166.291C3.0047 165.861 2.24469 157.101 3.90469 156.271Z" fill="url(#paint1_linear)"/>
<path d="M231.955 127.391L159.745 188.851C157.572 190.77 154.97 192.14 152.158 192.845C149.346 193.549 146.406 193.569 143.585 192.901L4.76467 159.161C2.99467 158.731 2.76467 155.931 4.41467 155.101L42.4847 133.631L52.4847 128.011L82.8947 110.871C85.0314 109.795 87.4448 109.394 89.8147 109.721L230.715 122.031C233.055 122.311 233.845 125.781 231.955 127.391Z" fill="#5F8BAE"/>
<path d="M89.8047 113.121L218.605 132.171L178.965 164.371L46.7647 137.621L89.8047 113.121Z" fill="url(#paint2_linear)"/>
<path d="M141.515 146.971C146.991 145.787 152.227 143.688 157.005 140.761C158.325 139.921 159.775 138.411 159.005 137.031C158.485 136.031 157.205 135.761 156.805 134.711C158.555 134.001 160.475 134.331 162.065 132.961C163.655 131.591 163.825 128.961 162.135 127.961C163.46 127.873 164.741 127.446 165.855 126.721C166.397 126.344 166.8 125.799 167 125.169C167.201 124.54 167.189 123.862 166.965 123.241C166.355 121.971 164.755 121.611 163.375 121.391C161.442 121.011 159.473 120.853 157.505 120.921C155.253 121.121 153.07 121.803 151.105 122.921C149.265 123.921 147.775 125.661 145.945 126.581C142.205 128.461 137.295 128.251 133.275 129.131C130.275 129.781 127.375 130.911 124.425 131.801C121.475 132.691 118.675 133.331 115.765 133.971C108.725 135.518 101.668 136.984 94.5947 138.371C95.0547 141.521 98.4247 143.261 101.375 144.451C105.469 146.245 109.748 147.587 114.135 148.451C117.571 148.947 121.048 149.105 124.515 148.921C130.231 148.821 135.924 148.168 141.515 146.971Z" fill="url(#paint3_linear)"/>
<path d="M76.3247 145.601L129.405 156.331L101.955 178.731L46.7647 166.341L76.3247 145.601Z" fill="url(#paint4_linear)"/>
<path d="M49.7747 170.211C50.3163 171.303 51.0842 172.267 52.0273 173.04C52.9705 173.812 54.0672 174.375 55.2447 174.691C59.1447 175.631 81.8746 181.451 81.8746 181.451C81.8746 181.451 85.5746 181.891 87.6246 179.451L49.7747 170.211Z" fill="url(#paint5_linear)"/>
<path d="M85.7547 109.711L231.115 130.391C232.181 130.544 233.265 130.282 234.144 129.659C235.022 129.035 235.628 128.098 235.835 127.041L256.575 22.321C256.797 21.2032 256.781 20.0513 256.528 18.9401C256.275 17.829 255.791 16.7836 255.107 15.8722C254.423 14.9607 253.554 14.2037 252.558 13.6504C251.562 13.0971 250.46 12.76 249.325 12.661L105.775 0.0309645C103.662 -0.15415 101.56 0.495923 99.9209 1.84183C98.2815 3.18774 97.2346 5.12236 97.0047 7.23096L85.7547 109.711Z" fill="#5F8BAE"/>
<path d="M85.7547 109.711L230.755 130.341C231.926 130.507 233.117 130.218 234.082 129.534C235.047 128.849 235.714 127.821 235.945 126.661L256.605 22.321C256.827 21.2032 256.811 20.0513 256.558 18.9401C256.305 17.829 255.821 16.7836 255.137 15.8722C254.453 14.9607 253.584 14.2037 252.588 13.6504C251.592 13.0971 250.49 12.76 249.355 12.661L105.775 0.0309645C103.662 -0.15415 101.56 0.495923 99.9209 1.84183C98.2815 3.18774 97.2346 5.12236 97.0047 7.23096L85.7547 109.711Z" fill="url(#paint6_linear)"/>
<path d="M228.515 124.381L249.165 18.7109L102.755 5.19092L91.1147 105.241L228.515 124.381Z" fill="white"/>
<path d="M79.7047 168.221C79.6763 168.498 79.7081 168.779 79.7978 169.043C79.8876 169.307 80.0332 169.548 80.2247 169.751C80.4339 169.898 80.6729 169.997 80.9247 170.041C81.5828 170.172 82.2557 170.212 82.9247 170.161C84.1659 170.074 85.3992 169.897 86.6147 169.631L88.7147 169.231C88.8465 169.223 88.9753 169.188 89.0937 169.13C89.2121 169.072 89.3178 168.99 89.4047 168.891C89.4641 168.759 89.4844 168.612 89.4631 168.468C89.4419 168.325 89.3799 168.19 89.2847 168.081C88.9234 167.67 88.4565 167.366 87.9347 167.201C86.6788 166.691 85.3848 166.279 84.0647 165.971C83.8459 165.938 83.6374 165.856 83.4547 165.731C83.1947 165.501 83.1447 165.111 82.9647 164.801C82.7833 164.541 82.5284 164.341 82.2326 164.227C81.9368 164.113 81.6137 164.09 81.3047 164.161C80.7047 164.281 79.8347 164.691 79.6947 165.351C79.5931 166.305 79.5964 167.268 79.7047 168.221Z" fill="#F9C6D6"/>
<path d="M86.4647 166.221C86.2517 166.166 86.028 166.167 85.8157 166.225C85.6034 166.283 85.41 166.395 85.2547 166.551C84.9147 167.061 85.3647 167.871 84.9447 168.331C84.8175 168.436 84.6704 168.514 84.5123 168.56C84.3542 168.607 84.1883 168.621 84.0247 168.601H81.6947C81.0742 168.627 80.4529 168.576 79.8447 168.451C79.7041 168.4 79.5532 168.382 79.4047 168.401C79.3038 168.433 79.2143 168.493 79.1469 168.575C79.0795 168.657 79.037 168.756 79.0247 168.861C79.0002 169.072 79.0312 169.286 79.1147 169.481C79.261 169.904 79.4774 170.3 79.7547 170.651C79.8276 170.757 79.9232 170.846 80.0347 170.911C80.1659 170.959 80.3049 170.983 80.4447 170.981C81.8147 170.981 83.1847 170.981 84.5547 170.921C85.5047 170.851 86.4447 170.711 87.3947 170.631C88.7574 170.629 90.1099 170.395 91.3947 169.941C91.5628 169.884 91.7177 169.793 91.85 169.675C91.9823 169.556 92.0894 169.412 92.1647 169.251C92.2051 169.103 92.2108 168.947 92.1813 168.796C92.1519 168.645 92.088 168.503 91.9947 168.381C91.8097 168.141 91.5784 167.94 91.3147 167.791C90.5658 167.314 89.7455 166.959 88.8847 166.741C88.0915 166.51 87.2827 166.336 86.4647 166.221Z" fill="#565056"/>
<path d="M54.3547 165.661C54.3447 165.71 54.3447 165.761 54.3547 165.811C54.4347 167.651 56.8747 167.701 58.1847 167.631C59.4286 167.543 60.6649 167.37 61.8847 167.111L63.9747 166.711C64.1072 166.701 64.2365 166.665 64.3549 166.605C64.4734 166.545 64.5787 166.462 64.6647 166.361C64.7245 166.23 64.745 166.085 64.7237 165.943C64.7024 165.801 64.6402 165.668 64.5447 165.561C64.1874 165.148 63.7241 164.84 63.2047 164.671C62.0745 164.239 60.923 163.865 59.7547 163.551C58.7547 163.241 59.5847 161.811 59.6947 161.051C59.745 160.902 59.745 160.74 59.6947 160.591C59.5826 160.424 59.4109 160.306 59.2147 160.261C58.6087 160.054 57.9749 159.939 57.3347 159.921C57.2072 159.907 57.0784 159.932 56.9647 159.991C56.8612 160.069 56.7844 160.177 56.7447 160.301L54.7447 164.561C54.5471 164.9 54.4148 165.273 54.3547 165.661Z" fill="#F9C6D6"/>
<path d="M55.2447 111.441C55.2447 111.441 53.7547 119.841 56.8347 126.151C58.4532 129.539 60.2593 132.834 62.2447 136.021C62.2447 136.021 55.8247 142.961 55.8247 151.711C55.8247 160.461 55.6647 160.861 55.6647 160.861L59.5147 162.861L69.1147 136.031C69.1147 136.031 69.6947 132.231 69.1147 130.941C68.5347 129.651 63.6147 115.031 63.6147 115.031L55.2447 111.441Z" fill="#473F47"/>
<path d="M90.1147 77.351C88.1147 77.351 85.9447 75.231 84.7347 71.951C83.3347 68.161 83.9347 64.681 86.1347 63.871C88.3347 63.061 91.0447 65.311 92.4447 69.111C93.8447 72.901 93.2447 76.381 91.0447 77.191C90.7466 77.299 90.4317 77.3531 90.1147 77.351ZM87.1147 65.501C87.0091 65.4973 86.9038 65.5143 86.8047 65.551C85.8047 65.931 85.4047 68.481 86.4547 71.331C87.5047 74.181 89.4547 75.891 90.4547 75.511C91.4547 75.131 91.8547 72.581 90.8047 69.731C89.7947 67.141 88.1147 65.501 87.0447 65.501H87.1147Z" fill="#473F47"/>
<path d="M98.0146 85.681C97.8792 85.6823 97.7452 85.6533 97.6223 85.5962C97.4995 85.5391 97.391 85.4553 97.3047 85.351L90.6847 77.031C90.5375 76.8453 90.47 76.6088 90.4972 76.3734C90.5244 76.1381 90.644 75.9232 90.8297 75.776C91.0153 75.6288 91.2518 75.5614 91.4872 75.5885C91.7225 75.6157 91.9375 75.7353 92.0847 75.921L98.7047 84.281C98.8115 84.4104 98.8791 84.5677 98.8994 84.7344C98.9197 84.901 98.892 85.0699 98.8195 85.2213C98.747 85.3727 98.6327 85.5001 98.4901 85.5887C98.3474 85.6772 98.1825 85.7231 98.0146 85.721V85.681Z" fill="#473F47"/>
<path d="M86.2747 73.291C86.3812 74.1701 86.4179 75.0562 86.3847 75.9411C86.2167 76.6295 85.7999 77.2315 85.2147 77.6311C84.6275 78.0256 83.9736 78.3103 83.2847 78.471C83.0809 78.5135 82.8874 78.595 82.7147 78.711C82.5946 78.8577 82.5059 79.0274 82.4543 79.2098C82.4027 79.3922 82.3892 79.5832 82.4147 79.7711V82.031C82.4424 82.2663 82.3857 82.5037 82.2547 82.701C82.1497 82.8119 82.0138 82.8885 81.8647 82.921C81.3161 83.0469 80.7408 82.9768 80.2385 82.723C79.7362 82.4691 79.3386 82.0474 79.1147 81.531C78.8491 81.0335 78.5588 80.5495 78.2447 80.081C77.9413 79.4551 77.7646 78.7755 77.7247 78.081C77.4961 75.9088 77.9025 73.7169 78.8947 71.7711C79.5112 70.5344 80.4084 69.4591 81.5147 68.6311C82.4047 67.9911 84.1247 67.041 85.0347 68.141C85.4847 68.681 85.4747 69.491 85.8947 70.061C86.1947 70.471 86.7347 70.761 86.8147 71.261C86.8947 71.761 86.5647 72.121 86.4147 72.541C86.3232 72.7806 86.2758 73.0347 86.2747 73.291Z" fill="#F9C6D6"/>
<path d="M92.9147 77.871C92.9193 77.8244 92.9193 77.7775 92.9147 77.731C92.922 77.21 93.1173 76.7093 93.4647 76.321C93.6395 76.1317 93.8741 76.0085 94.1291 75.9721C94.3842 75.9356 94.6439 75.9882 94.8647 76.121C95.0347 76.241 95.1647 76.441 95.3647 76.531C95.5647 76.621 95.9947 76.531 96.2047 76.771C96.4147 77.011 96.3547 77.211 96.4547 77.421C96.5547 77.631 96.8447 77.821 97.0347 78.021C97.9747 79.021 96.9347 80.851 96.5647 81.881C96.0047 83.421 95.4547 84.971 94.9947 86.551C94.4417 86.6309 93.8779 86.5216 93.3947 86.241C93.2194 86.1353 93.0638 85.9999 92.9347 85.841C92.781 85.5682 92.6856 85.2665 92.6546 84.9549C92.6236 84.6433 92.6577 84.3287 92.7547 84.031C92.8728 83.5777 92.9067 83.1065 92.8547 82.641C92.7197 82.1375 92.5527 81.6432 92.3547 81.161C92.2147 80.751 92.0947 80.231 92.4147 79.941C92.5423 79.8616 92.6627 79.7712 92.7747 79.671C92.8533 79.5524 92.8951 79.4133 92.8947 79.271C92.9347 78.801 92.8947 78.331 92.9147 77.871Z" fill="#F9C6D6"/>
<path d="M74.6347 115.031L83.9647 136.031L83.5747 165.771L79.2947 165.461C79.2947 165.461 71.9747 148.541 76.6847 138.061C76.6847 138.061 65.3747 128.391 61.1947 122.891C56.0647 116.121 57.1947 110.441 57.1947 110.441L74.6347 115.031Z" fill="#565056"/>
<path d="M78.9547 78.911C80.0999 79.1751 81.2107 79.571 82.2647 80.091C85.8447 81.741 86.0047 84.571 87.2647 87.961C88.0649 90.1199 88.9762 92.2361 89.9947 94.301L91.7247 84.081L96.5047 86.021C96.5047 86.021 96.9847 101.101 93.5047 103.131C91.2447 104.431 88.0747 102.911 86.0247 101.861C85.2747 101.481 84.0247 100.331 83.2347 100.221C81.7047 100.011 81.6047 101.831 80.2347 102.891C79.3492 103.408 78.5005 103.987 77.6947 104.621C76.935 105.494 76.3662 106.516 76.0247 107.621C75.64 108.989 75.5279 110.42 75.6947 111.831C75.8012 112.303 75.8063 112.792 75.7098 113.266C75.6132 113.74 75.4172 114.188 75.1347 114.581C74.7401 114.916 74.2577 115.131 73.7447 115.201C72.0419 115.446 70.3113 115.426 68.6147 115.141C65.2509 114.876 61.9214 114.28 58.6747 113.361C57.4928 112.996 56.3369 112.552 55.2147 112.031C54.9714 111.927 54.7481 111.782 54.5547 111.601C54.3503 111.362 54.2154 111.071 54.1647 110.761C53.7147 108.701 55.1647 106.761 55.9547 104.831C56.4547 103.511 56.6147 102.071 57.0647 100.731C57.6526 99.3668 58.4121 98.0832 59.3247 96.911C59.9947 95.911 60.3247 94.631 61.0447 93.551C62.8451 90.7845 64.8507 88.1571 67.0447 85.691C68.3247 84.1011 69.7509 82.6347 71.3047 81.311C73.0755 79.7385 75.347 78.8455 77.7147 78.791C78.1306 78.797 78.5453 78.8371 78.9547 78.911Z" fill="#5F8BAE"/>
<path d="M74.9247 59.7509C73.6794 59.9256 72.499 60.4142 71.4947 61.1709C69.3047 62.9509 68.8047 66.1709 66.7247 68.0809C64.9447 69.6909 62.3747 70.0109 59.9847 70.2609C60.3705 71.3698 60.9719 72.3914 61.7543 73.2668C62.5366 74.1422 63.4845 74.8542 64.5432 75.3617C65.6019 75.8692 66.7506 76.1623 67.923 76.2239C69.0955 76.2856 70.2686 76.1146 71.3747 75.7209L68.9247 78.1609C68.8605 78.2114 68.8147 78.2817 68.7947 78.3609C68.7947 78.5209 68.9447 78.6209 69.0947 78.6709C70.2291 79.0898 71.4805 79.0612 72.5947 78.5909C72.6111 79.1104 72.8109 79.6073 73.1587 79.9935C73.5065 80.3797 73.9798 80.6303 74.4947 80.7009C75.2185 80.8052 75.957 80.7155 76.6347 80.4409C77.013 80.2909 77.4179 80.2195 77.8247 80.2309C78.1647 80.2309 78.4747 80.4109 78.8247 80.2909C79.8616 79.6376 80.6934 78.7054 81.2247 77.6009C82.0147 75.8209 80.8547 73.6009 81.8047 71.8409C82.5947 70.4409 85.0747 70.0209 85.4447 68.4409C85.8447 66.6909 84.8947 64.1309 83.8847 62.7509C82.7361 61.1767 81.043 60.086 79.1347 59.6909C78.0184 59.4936 76.8782 59.47 75.7547 59.6209L74.9247 59.7509Z" fill="#FC682D"/>
<path d="M61.3447 163.371C61.1309 163.316 60.9064 163.318 60.6939 163.378C60.4813 163.438 60.2884 163.553 60.1347 163.711C59.7947 164.211 60.2447 165.021 59.8247 165.481C59.6988 165.588 59.5518 165.667 59.3933 165.714C59.2349 165.76 59.0684 165.773 58.9047 165.751H56.5747C55.9541 165.786 55.3315 165.736 54.7247 165.601C54.583 165.554 54.4332 165.537 54.2847 165.551C54.1838 165.583 54.0943 165.643 54.0269 165.725C53.9595 165.807 53.9171 165.906 53.9047 166.011C53.8845 166.222 53.9154 166.435 53.9947 166.631C54.141 167.054 54.3574 167.45 54.6347 167.801C54.7104 167.905 54.8055 167.993 54.9147 168.061C55.0449 168.113 55.1846 168.137 55.3247 168.131C56.6947 168.131 58.0647 168.131 59.4347 168.071C60.4347 168.001 61.3247 167.861 62.2747 167.791C63.638 167.785 64.9905 167.549 66.2747 167.091C66.4429 167.034 66.5978 166.943 66.7301 166.825C66.8624 166.706 66.9694 166.562 67.0447 166.401C67.0851 166.253 67.0908 166.097 67.0614 165.946C67.0319 165.795 66.968 165.653 66.8747 165.531C66.6869 165.294 66.4563 165.093 66.1947 164.941C65.4458 164.464 64.6255 164.109 63.7647 163.891C62.9703 163.665 62.1619 163.491 61.3447 163.371Z" fill="#565056"/>
<path d="M122.635 147.821C106.465 147.591 93.4247 142.061 93.5247 135.451C93.5247 134.721 92.9747 130.571 93.2947 129.911C95.8447 124.371 108.595 123.721 122.975 123.911C137.125 124.121 148.975 123.911 151.655 129.381C152.045 130.161 152.105 135.481 152.095 136.271C152.005 142.891 138.815 148.031 122.635 147.821Z" fill="#E8A825"/>
<path d="M151.888 130.782C151.982 124.183 138.947 118.645 122.772 118.414C106.597 118.182 93.4085 123.344 93.314 129.943C93.2196 136.542 106.255 142.08 122.43 142.311C138.605 142.543 151.794 137.381 151.888 130.782Z" fill="#F8C244"/>
<path d="M147.548 130.719C147.629 125.098 136.525 120.381 122.747 120.183C108.969 119.986 97.734 124.384 97.6536 130.005C97.5731 135.627 108.677 140.344 122.455 140.541C136.233 140.739 147.468 136.341 147.548 130.719Z" fill="#E8A825"/>
<path d="M106.865 129.171L110.865 129.231C110.943 128.711 111.146 128.218 111.456 127.793C111.766 127.368 112.174 127.025 112.645 126.791L115.295 127.201C114.835 127.41 114.436 127.731 114.134 128.134C113.831 128.538 113.636 129.012 113.565 129.511C113.565 130.661 115.165 131.511 117.405 131.511C118.272 131.573 119.142 131.446 119.955 131.139C120.769 130.832 121.505 130.351 122.115 129.731C122.997 128.814 124.074 128.107 125.267 127.664C126.46 127.22 127.738 127.052 129.005 127.171C132.285 127.171 134.775 128.171 135.355 129.691L139.355 129.751V130.751L135.505 130.691C135.446 131.124 135.288 131.538 135.043 131.9C134.799 132.263 134.474 132.564 134.095 132.781L131.495 132.341C131.862 132.138 132.177 131.851 132.413 131.503C132.649 131.156 132.801 130.758 132.855 130.341C132.855 129.111 131.065 128.601 129.475 128.581C128.62 128.533 127.765 128.683 126.978 129.019C126.19 129.356 125.491 129.87 124.935 130.521C123.255 132.151 121.175 132.961 117.615 132.961C114.475 132.961 111.505 131.961 110.905 130.311L106.795 130.251L106.865 129.171Z" fill="#F8C244"/>
<path d="M118.015 136.031C101.845 135.801 88.8047 130.271 88.9047 123.661C88.9047 122.931 88.3547 118.781 88.6647 118.121C91.2247 112.581 103.975 111.931 118.355 112.121C132.505 112.331 144.355 112.121 147.035 117.591C147.425 118.371 147.485 123.691 147.475 124.481C147.385 131.031 134.195 136.211 118.015 136.031Z" fill="#E8A825"/>
<path d="M147.273 118.942C147.368 112.343 134.332 106.805 118.157 106.574C101.982 106.342 88.7936 111.504 88.6992 118.103C88.6047 124.702 101.64 130.24 117.815 130.471C133.99 130.703 147.179 125.541 147.273 118.942Z" fill="#F8C244"/>
<path d="M142.934 118.88C143.014 113.258 131.91 108.541 118.132 108.344C104.354 108.146 93.1192 112.544 93.0387 118.166C92.9582 123.787 104.062 128.504 117.84 128.702C131.619 128.899 142.853 124.501 142.934 118.88Z" fill="#E8A825"/>
<path d="M102.245 117.331L106.245 117.391C106.323 116.871 106.526 116.378 106.836 115.953C107.146 115.528 107.554 115.185 108.025 114.951L110.675 115.361C110.215 115.569 109.816 115.89 109.514 116.294C109.211 116.698 109.016 117.171 108.945 117.671C108.945 118.821 110.545 119.671 112.785 119.671C113.657 119.742 114.534 119.621 115.354 119.317C116.175 119.013 116.919 118.533 117.535 117.911C118.415 116.992 119.493 116.284 120.686 115.84C121.879 115.397 123.157 115.23 124.425 115.351C127.705 115.351 130.195 116.351 130.775 117.871L134.775 117.931V118.931L130.925 118.871C130.866 119.304 130.708 119.718 130.463 120.08C130.219 120.443 129.894 120.744 129.515 120.961L126.915 120.521C127.282 120.317 127.597 120.03 127.833 119.683C128.069 119.336 128.221 118.938 128.275 118.521C128.275 117.301 126.485 116.791 124.895 116.771C124.04 116.723 123.185 116.873 122.398 117.209C121.61 117.546 120.911 118.06 120.355 118.711C118.675 120.341 116.595 121.151 113.035 121.151C109.895 121.151 106.925 120.151 106.325 118.501L102.215 118.441L102.245 117.331Z" fill="#F8C244"/>
<path d="M131.645 130.361C115.465 130.121 102.425 124.591 102.525 117.991C102.525 117.261 101.975 113.111 102.295 112.451C104.845 106.911 117.605 106.261 131.985 106.451C146.135 106.661 157.985 106.451 160.655 111.921C161.045 112.701 161.105 118.031 161.095 118.821C161.015 125.421 147.815 130.591 131.645 130.361Z" fill="#E8A825"/>
<path d="M160.899 113.323C160.993 106.724 147.957 101.186 131.783 100.955C115.608 100.723 102.419 105.885 102.325 112.484C102.23 119.083 115.266 124.621 131.441 124.852C147.615 125.084 160.804 119.922 160.899 113.323Z" fill="#F8C244"/>
<path d="M156.559 113.261C156.64 107.639 145.535 102.922 131.757 102.724C117.979 102.527 106.745 106.925 106.664 112.546C106.584 118.168 117.688 122.885 131.466 123.082C145.244 123.28 156.479 118.882 156.559 113.261Z" fill="#E8A825"/>
<path d="M115.865 111.701L119.865 111.761C119.943 111.241 120.145 110.747 120.455 110.322C120.765 109.898 121.173 109.554 121.645 109.321L124.295 109.741C123.837 109.953 123.438 110.274 123.135 110.678C122.831 111.081 122.632 111.552 122.555 112.051C122.555 113.191 124.155 114.001 126.405 114.051C127.277 114.122 128.154 114.001 128.975 113.697C129.795 113.393 130.539 112.913 131.155 112.291C132.035 111.374 133.11 110.667 134.302 110.224C135.493 109.781 136.769 109.612 138.035 109.731C141.325 109.731 143.815 110.731 144.385 112.261L148.385 112.321V113.321L144.545 113.261C144.482 113.694 144.321 114.107 144.075 114.469C143.829 114.832 143.504 115.133 143.125 115.351L140.525 114.911C140.892 114.706 141.207 114.419 141.445 114.072C141.683 113.725 141.836 113.328 141.895 112.911C141.895 111.691 140.095 111.181 138.515 111.151C137.66 111.105 136.806 111.256 136.019 111.593C135.232 111.929 134.532 112.442 133.975 113.091C132.285 114.731 130.215 115.541 126.645 115.541C123.505 115.541 120.545 114.541 119.945 112.891L115.835 112.831L115.865 111.701Z" fill="#F8C244"/>
<path d="M111.875 73.091C111.405 72.761 113.875 56.261 113.875 56.261L122.265 57.081L120.115 73.661L111.875 73.091Z" fill="#5F8BAE"/>
<path d="M128.645 74.7209C128.175 74.3809 132.365 49.7209 132.365 49.7209L140.755 50.5409L136.915 75.3409L128.645 74.7209Z" fill="#5F8BAE"/>
<path d="M145.415 76.341C144.955 76.011 151.645 32.041 151.645 32.041L160.035 32.861L153.685 76.911L145.415 76.341Z" fill="#5F8BAE"/>
<path d="M162.185 77.971C161.725 77.641 166.985 44.561 166.985 44.561L175.375 45.381L170.455 78.541L162.185 77.971Z" fill="#5F8BAE"/>
<path d="M170.615 83.091L104.915 78.321L104.975 77.921C105.655 72.681 111.655 26.711 111.975 25.861L112.695 26.091C112.445 27.091 108.115 59.981 105.815 77.621L170.695 82.321L170.615 83.091Z" fill="#5F8BAE"/>
<path opacity="0.39" d="M198.415 98.0311L199.955 89.9411C195.701 90.0369 191.518 88.8448 187.955 86.5211L190.955 81.151C194.249 83.3961 198.158 84.5664 202.145 84.5011C208.065 84.5011 212.635 81.1711 213.505 76.6111C214.375 72.0511 211.645 69.5111 205.995 67.1311C198.155 63.9911 193.655 60.341 194.995 53.401C196.265 46.761 202.105 41.6911 209.995 40.4011L211.535 32.3311H216.665L215.115 40.091C218.706 40.0589 222.238 41.0024 225.335 42.8211L222.285 48.201C219.318 46.3509 215.869 45.425 212.375 45.5411C206.005 45.5411 202.915 49.2811 202.305 52.4711C201.505 56.6311 204.175 58.6911 210.805 61.5211C218.695 64.8211 222.195 68.9411 220.805 76.0611C219.605 82.3811 213.905 88.341 205.145 89.761L203.615 98.0311H198.415Z" fill="#5F8BAE"/>
<defs>
<linearGradient id="paint0_linear" x1="-21839.1" y1="662.216" x2="31470.4" y2="121354" gradientUnits="userSpaceOnUse">
<stop offset="0.01"/>
<stop offset="0.08" stop-opacity="0.69"/>
<stop offset="0.21" stop-opacity="0.32"/>
<stop offset="1" stop-opacity="0"/>
</linearGradient>
<linearGradient id="paint1_linear" x1="40265" y1="15117.8" x2="43141.7" y2="38911.1" gradientUnits="userSpaceOnUse">
<stop offset="0.01"/>
<stop offset="0.08" stop-opacity="0.69"/>
<stop offset="0.21" stop-opacity="0.32"/>
<stop offset="1" stop-opacity="0"/>
</linearGradient>
<linearGradient id="paint2_linear" x1="33507.4" y1="4279.75" x2="32762.6" y2="21158.8" gradientUnits="userSpaceOnUse">
<stop offset="0.01"/>
<stop offset="0.08" stop-opacity="0.69"/>
<stop offset="0.21" stop-opacity="0.32"/>
<stop offset="1" stop-opacity="0"/>
</linearGradient>
<linearGradient id="paint3_linear" x1="12378.3" y1="5695.55" x2="19588.1" y2="12138.9" gradientUnits="userSpaceOnUse">
<stop offset="0.01"/>
<stop offset="0.08" stop-opacity="0.69"/>
<stop offset="0.21" stop-opacity="0.32"/>
<stop offset="1" stop-opacity="0"/>
</linearGradient>
<linearGradient id="paint4_linear" x1="12223.8" y1="4334.89" x2="11725.9" y2="12729.2" gradientUnits="userSpaceOnUse">
<stop offset="0.01"/>
<stop offset="0.08" stop-opacity="0.69"/>
<stop offset="0.21" stop-opacity="0.32"/>
<stop offset="1" stop-opacity="0"/>
</linearGradient>
<linearGradient id="paint5_linear" x1="5575.49" y1="2891.58" x2="5500.85" y2="3536.34" gradientUnits="userSpaceOnUse">
<stop offset="0.01"/>
<stop offset="0.08" stop-opacity="0.69"/>
<stop offset="0.21" stop-opacity="0.32"/>
<stop offset="1" stop-opacity="0"/>
</linearGradient>
<linearGradient id="paint6_linear" x1="39865.1" y1="5515.36" x2="48252.5" y2="101587" gradientUnits="userSpaceOnUse">
<stop offset="0.01"/>
<stop offset="0.08" stop-opacity="0.69"/>
<stop offset="0.21" stop-opacity="0.32"/>
<stop offset="1" stop-opacity="0"/>
</linearGradient>
</defs>
</svg>
