<svg id="Solid" height="512" viewBox="0 0 512 512" width="512" xmlns="http://www.w3.org/2000/svg"><path d="m467.562 78.656c17.767 11.845 5.791 36.735 5.283 37.766a8 8 0 0 0 0 7.157c11.68 23.353 4.022 40.011-6.788 50.914a135.4 135.4 0 0 1 9.308 13.214c12.222-11.572 28.241-34.564 13.439-67.8 5.825-14.409 9.276-40.137-12.366-54.565a8 8 0 1 0 -8.876 13.312z"/><path d="m154.246 416h29.754v-16h-25.754z"/><path d="m418.246 416h29.754v-16h-25.754z"/><path d="m32 248v16a8.009 8.009 0 0 0 8 8h8v-32h-8a8.009 8.009 0 0 0 -8 8z"/><path d="m421.6 155.684c-34.973-23.012-85.262-35.684-141.6-35.684-50.2 0-98.021 10.213-134.646 28.757a8 8 0 0 1 -11.345-5.08 43.861 43.861 0 0 0 -23.952-29.071 119.207 119.207 0 0 1 -6.9 16.972c-5.841 11.682-4.62 23.547 3.627 35.268a8 8 0 0 1 -.622 9.985c-5.518 6.071-9.115 11.989-10.4 17.115-6.611 26.44-23.1 38.5-31.76 43.162v38.992c41.7 31.206 81.951 6.271 83.684 5.169a8.01 8.01 0 0 1 12.314 6.731v96h26.233l22.177-66.53a8 8 0 0 1 10.667-4.855 222.1 222.1 0 0 0 119.07 14.576 212.6 212.6 0 0 0 37.452-9.217c-10.499-9.484-23.599-26.76-23.599-53.974a8 8 0 0 1 16 0c0 34.318 26.484 48.284 27.612 48.862.058.03.111.066.168.1.073.04.143.084.215.125.157.092.312.185.461.286.109.073.214.152.32.23s.2.152.3.233c.136.111.266.228.394.348.053.051.106.1.158.153.157.156.307.317.451.486l.029.035a7.95 7.95 0 0 1 1.483 2.616l22.176 66.526h27.987l30.246-120.973c-.276-45.917-19.92-82.027-58.4-107.343zm-317.6 84.316a8 8 0 1 1 8-8 8 8 0 0 1 -8 8z"/><circle cx="464" cy="120" r="8"/></svg>