<?xml version="1.0" standalone="no"?>
<svg xmlns="http://www.w3.org/2000/svg" viewBox="0 0 99.813 115.253" width="99.813" height="115.253"><polygon fill="none" stroke="#df4423" stroke-width="3" points="98.313,29.56325 98.313,85.68975 49.9065,113.753 1.5,85.68975 1.5,29.56325 49.9065,1.5"></polygon><path fill="#ff6700" fill-rule="nonzero" d="M2.61 18.46L2.61 1.91L0 1.91L0 0.82Q0.41 0.68 1.31 0.54Q2.20 0.40 3.40 0.27Q4.61 0.15 6.04 0.08Q7.48 0 8.97 0L8.97 0Q9.61 0 10.38 0.01Q11.16 0.03 11.93 0.08Q12.70 0.12 13.43 0.21Q14.15 0.29 14.71 0.44Q15.27 0.59 15.61 0.81Q15.94 1.04 15.94 1.35L15.94 1.35Q15.94 1.49 15.77 1.85Q15.60 2.20 15.38 2.59Q15.16 2.98 14.96 3.32Q14.75 3.65 14.68 3.73L14.68 3.73Q14.68 3.72 14.32 3.47Q13.96 3.23 13.23 2.93Q12.50 2.64 11.40 2.39Q10.31 2.15 8.86 2.13L8.86 2.13L5.82 2.13L5.82 8.57L13.06 8.57L13.06 9.24Q13.06 9.97 12.75 10.23Q12.44 10.50 11.77 10.50L11.77 10.50L5.82 10.50L5.82 15.24Q5.82 16.12 5.89 16.80Q5.95 17.47 6.04 17.97Q6.13 18.47 6.21 18.81Q6.29 19.15 6.33 19.36L6.33 19.36Q6.13 19.47 5.87 19.56Q5.62 19.65 5.34 19.71Q5.06 19.77 4.79 19.80Q4.51 19.82 4.27 19.82L4.27 19.82Q3.91 19.82 3.60 19.76Q3.29 19.69 3.08 19.53Q2.86 19.37 2.73 19.11Q2.61 18.85 2.61 18.46L2.61 18.46Z" transform="translate(41.936, 22.5)"></path><g fill="#ff6700" color="#ff6700" transform="translate(27.9065 50.32421875) scale(0.7857143)"><svg width="56.0" height="54.0" x="0.0" y="0.0" viewBox="0 0 56 54"><path fill="currentColor" fill-rule="evenodd" d="M20.14 11.806c.69 0 1.248.302 1.248.676 0 .373-.559.676-1.248.676-.69 0-1.248-.303-1.248-.676 0-.374.559-.676 1.248-.676m20.405 21.523l.534.01c5.6.225 9.9 4.467 9.9 10.137 0 0 .297 5.7-3.224 9.674-.285.323-.808.047-.72-.374.324-1.532.214-3.749-2.713-4.567-2.838-.792-5.67-.042-8.392.814-5.072 1.593-10.064 4.536-15.43 4.937-2.73.204-5.532-.369-7.9-1.742-4.398-2.548-6.242-7.656-6.572-12.497-.023-.334-.097-1.047.156-1.103.367-.077.692.66.855.874.337.445.72.855 1.141 1.221 2.783 2.425 6.471 2.177 9.853 1.42 3.721-.832 6.965-2.528 10.252-4.388 3.181-1.8 6.462-3.691 10.13-4.252.88-.135 1.774-.19 2.664-.154zm1.404 5.878c-1.67-.286-3.379-.148-5.01.232-1.627.412-3.168 1.058-4.6 1.858a29.406 29.406 0 0 0-4.054 2.738c1.534-.572 3.004-1.25 4.477-1.864 1.477-.602 2.954-1.16 4.47-1.518a16.128 16.128 0 0 1 4.608-.477 13.26 13.26 0 0 1 4.59 1.103c-1.223-1.096-2.818-1.798-4.481-2.072zM21.752 0c1.066 0 3.484 3.12 3.484 3.12S32.44 7.49 35.533 15.653c3.094 8.165-3.068 15.965-3.068 15.965a21.32 21.32 0 0 0 .759-4.477c.047-.834.038-1.671-.026-2.503-.022-.278-.138-.71-.229-1.134-.056-.262-.4-.307-.537-.077a4.679 4.679 0 0 1-1.004 1.177c-.049-1.565-.206-3.147-.744-4.618-.462-1.262-1.228-2.444-2.29-3.253a.252.252 0 0 0-.401.243 4.672 4.672 0 0 1-.116 2.121c-1.659-1.66-3.973-2.53-6.294-2.886-1.924-.295-3.877-.266-5.827-.224-.377.008-.494.51-.164.692 1.58.875 3.253 1.227 5.08 1.589 2.24.444 4.149 1.495 5.5 3.366 2.03 2.809 1.345 9.595.963 12.34a2.533 2.533 0 0 1-1.21 1.827c-2.498 1.493-5.553 2.77-9.429 3.567-1.91.392-3.986.347-5.839-.3-.903-.315-1.758-.85-2.29-1.646-.653-.976-.749-2.253-.45-3.389.3-1.136.96-2.146 1.717-3.044 2.322-2.753 5.518-4.529 8.224-6.853 1.123-.964 2.342-2.005 2.822-3.471.023-.068.295-1.26.084-1.267-3.207-.114-8.018-1.093-9.7-4.246-.1-.185-.188-.397-.136-.6.065-.257.325-.407.56-.528 2.168-1.113 4.257-2.135 6.102-3.767a19.55 19.55 0 0 0 2.2-2.29c.297-.364 1.429-1.346 1.39-1.83 0-.001-.494-6.137.572-6.137z"></path></svg></g></svg>