<?xml version="1.0" standalone="no"?>
<svg xmlns="http://www.w3.org/2000/svg" viewBox="0 0 159 69" width="159" height="69"><g fill="#df4423" color="#df4423" transform="translate(57.008 0) scale(0.7857143) "><svg width="56.0" height="54.0" x="0.0" y="0.0" viewBox="0 0 56 54"><path fill="currentColor" fill-rule="evenodd" d="M20.14 11.806c.69 0 1.248.302 1.248.676 0 .373-.559.676-1.248.676-.69 0-1.248-.303-1.248-.676 0-.374.559-.676 1.248-.676m20.405 21.523l.534.01c5.6.225 9.9 4.467 9.9 10.137 0 0 .297 5.7-3.224 9.674-.285.323-.808.047-.72-.374.324-1.532.214-3.749-2.713-4.567-2.838-.792-5.67-.042-8.392.814-5.072 1.593-10.064 4.536-15.43 4.937-2.73.204-5.532-.369-7.9-1.742-4.398-2.548-6.242-7.656-6.572-12.497-.023-.334-.097-1.047.156-1.103.367-.077.692.66.855.874.337.445.72.855 1.141 1.221 2.783 2.425 6.471 2.177 9.853 1.42 3.721-.832 6.965-2.528 10.252-4.388 3.181-1.8 6.462-3.691 10.13-4.252.88-.135 1.774-.19 2.664-.154zm1.404 5.878c-1.67-.286-3.379-.148-5.01.232-1.627.412-3.168 1.058-4.6 1.858a29.406 29.406 0 0 0-4.054 2.738c1.534-.572 3.004-1.25 4.477-1.864 1.477-.602 2.954-1.16 4.47-1.518a16.128 16.128 0 0 1 4.608-.477 13.26 13.26 0 0 1 4.59 1.103c-1.223-1.096-2.818-1.798-4.481-2.072zM21.752 0c1.066 0 3.484 3.12 3.484 3.12S32.44 7.49 35.533 15.653c3.094 8.165-3.068 15.965-3.068 15.965a21.32 21.32 0 0 0 .759-4.477c.047-.834.038-1.671-.026-2.503-.022-.278-.138-.71-.229-1.134-.056-.262-.4-.307-.537-.077a4.679 4.679 0 0 1-1.004 1.177c-.049-1.565-.206-3.147-.744-4.618-.462-1.262-1.228-2.444-2.29-3.253a.252.252 0 0 0-.401.243 4.672 4.672 0 0 1-.116 2.121c-1.659-1.66-3.973-2.53-6.294-2.886-1.924-.295-3.877-.266-5.827-.224-.377.008-.494.51-.164.692 1.58.875 3.253 1.227 5.08 1.589 2.24.444 4.149 1.495 5.5 3.366 2.03 2.809 1.345 9.595.963 12.34a2.533 2.533 0 0 1-1.21 1.827c-2.498 1.493-5.553 2.77-9.429 3.567-1.91.392-3.986.347-5.839-.3-.903-.315-1.758-.85-2.29-1.646-.653-.976-.749-2.253-.45-3.389.3-1.136.96-2.146 1.717-3.044 2.322-2.753 5.518-4.529 8.224-6.853 1.123-.964 2.342-2.005 2.822-3.471.023-.068.295-1.26.084-1.267-3.207-.114-8.018-1.093-9.7-4.246-.1-.185-.188-.397-.136-.6.065-.257.325-.407.56-.528 2.168-1.113 4.257-2.135 6.102-3.767a19.55 19.55 0 0 0 2.2-2.29c.297-.364 1.429-1.346 1.39-1.83 0-.001-.494-6.137.572-6.137z"></path></svg></g><path fill="#ff6700" fill-rule="nonzero" d="M2.24 17.04L2.24 2.86L0 2.86L0 1.92Q0.35 1.80 1.12 1.68Q1.89 1.56 2.92 1.45Q3.95 1.35 5.18 1.28Q6.41 1.22 7.69 1.22L7.69 1.22Q8.24 1.22 8.90 1.23Q9.56 1.24 10.22 1.28Q10.89 1.32 11.51 1.39Q12.13 1.46 12.61 1.59Q13.09 1.72 13.38 1.92Q13.66 2.11 13.66 2.38L13.66 2.38Q13.66 2.50 13.52 2.80Q13.37 3.11 13.18 3.44Q13.00 3.77 12.82 4.06Q12.64 4.35 12.59 4.42L12.59 4.42Q12.59 4.41 12.28 4.20Q11.96 3.98 11.34 3.73Q10.71 3.48 9.77 3.27Q8.84 3.06 7.59 3.05L7.59 3.05L4.99 3.05L4.99 8.57L11.19 8.57L11.19 9.14Q11.19 9.76 10.93 9.99Q10.66 10.22 10.09 10.22L10.09 10.22L4.99 10.22L4.99 14.29Q4.99 15.04 5.04 15.62Q5.10 16.20 5.17 16.62Q5.25 17.05 5.32 17.34Q5.39 17.64 5.43 17.81L5.43 17.81Q5.25 17.91 5.03 17.98Q4.82 18.06 4.58 18.11Q4.34 18.16 4.10 18.19Q3.87 18.21 3.66 18.21L3.66 18.21Q3.35 18.21 3.09 18.15Q2.82 18.09 2.64 17.96Q2.45 17.82 2.34 17.60Q2.24 17.38 2.24 17.04L2.24 17.04ZM21.91 17.09L21.91 16.97Q21.91 16.97 21.76 17.07Q21.60 17.17 21.32 17.32Q21.05 17.47 20.68 17.65Q20.31 17.84 19.87 17.99Q19.43 18.15 18.96 18.26Q18.48 18.36 18 18.36L18 18.36Q17.24 18.36 16.55 18.16Q15.86 17.95 15.33 17.52Q14.81 17.09 14.50 16.43Q14.19 15.77 14.19 14.86L14.19 14.86Q14.19 13.85 14.64 13.15Q15.09 12.45 15.90 12.01Q16.70 11.57 17.81 11.37Q18.93 11.18 20.26 11.18L20.26 11.18L21.91 11.18L21.91 10.30Q21.91 9.62 21.86 8.99Q21.81 8.37 21.62 7.90Q21.42 7.43 21.05 7.15Q20.68 6.87 20.06 6.87L20.06 6.87Q19.46 6.87 18.87 7.08Q18.27 7.30 17.70 7.63Q17.12 7.96 16.59 8.35Q16.07 8.74 15.63 9.09L15.63 9.09L14.67 7.80Q14.50 7.59 14.50 7.37L14.50 7.37Q14.50 6.98 14.98 6.67Q15.47 6.35 16.20 6.12Q16.93 5.89 17.78 5.77Q18.62 5.64 19.35 5.64L19.35 5.64Q20.43 5.64 21.39 5.89Q22.35 6.15 23.07 6.71Q23.79 7.27 24.21 8.15Q24.63 9.04 24.63 10.30L24.63 10.30L24.63 16.83L26.67 16.83L26.67 17.71Q26.47 17.81 26.13 17.91Q25.78 18 25.36 18.07Q24.94 18.14 24.47 18.18Q24.01 18.21 23.59 18.21L23.59 18.21Q23.31 18.21 23.02 18.18Q22.72 18.14 22.48 18.02Q22.24 17.89 22.08 17.68Q21.93 17.46 21.91 17.09L21.91 17.09ZM18.82 16.63L18.82 16.63Q19.23 16.63 19.76 16.52Q20.30 16.41 20.78 16.28L20.78 16.28Q21.34 16.13 21.91 15.91L21.91 15.91L21.91 12.62L19.95 12.62Q19.50 12.62 18.97 12.70Q18.43 12.79 17.97 13.01Q17.51 13.24 17.19 13.65Q16.88 14.06 16.88 14.73L16.88 14.73Q16.88 15.15 17.00 15.50Q17.13 15.84 17.38 16.10Q17.63 16.35 17.99 16.49Q18.35 16.63 18.82 16.63ZM27.84 6.32L27.84 6.32Q28.09 6.21 28.54 6.12Q28.98 6.02 29.51 5.96Q30.05 5.91 30.60 5.87Q31.16 5.84 31.62 5.84L31.62 5.84Q31.86 5.84 32.05 5.85Q32.24 5.86 32.37 5.92Q32.50 5.98 32.56 6.10Q32.63 6.22 32.63 6.46L32.63 6.46L32.63 9.27L34.11 7.15Q34.68 6.38 35.36 6.01Q36.05 5.64 36.91 5.64L36.91 5.64Q37.07 5.64 37.31 5.65Q37.55 5.67 37.78 5.74Q38.00 5.81 38.17 5.94Q38.33 6.07 38.33 6.29L38.33 6.29Q38.33 6.35 38.33 6.39Q38.33 6.42 38.31 6.48L38.31 6.48L37.80 8.13Q37.36 7.99 37.00 7.93Q36.64 7.88 36.34 7.88L36.34 7.88Q35.71 7.88 35.13 8.23Q34.56 8.59 34.08 9.08Q33.60 9.56 33.23 10.06Q32.86 10.56 32.63 10.83L32.63 10.83L32.63 14.47Q32.63 15.20 32.66 15.75Q32.70 16.30 32.75 16.71Q32.80 17.12 32.86 17.40Q32.92 17.67 32.95 17.84L32.95 17.84Q32.79 17.93 32.58 17.99Q32.38 18.06 32.15 18.11Q31.92 18.16 31.69 18.19Q31.46 18.21 31.28 18.21L31.28 18.21Q30.97 18.21 30.73 18.16Q30.48 18.11 30.29 17.98Q30.11 17.85 30.01 17.63Q29.91 17.41 29.91 17.09L29.91 17.09L29.91 7.20L27.84 7.20L27.84 6.32ZM52.00 9.27L52.00 14.47Q52.00 15.20 52.04 15.75Q52.08 16.30 52.13 16.71Q52.18 17.12 52.24 17.40Q52.30 17.67 52.34 17.84L52.34 17.84Q52.17 17.93 51.96 17.99Q51.75 18.06 51.52 18.11Q51.29 18.16 51.07 18.19Q50.85 18.21 50.66 18.21L50.66 18.21Q50.36 18.21 50.11 18.16Q49.86 18.11 49.68 17.98Q49.49 17.85 49.39 17.63Q49.29 17.41 49.29 17.09L49.29 17.09L49.29 9.43Q49.29 8.95 49.25 8.58Q49.22 8.20 49.08 7.94Q48.95 7.68 48.67 7.54Q48.40 7.39 47.92 7.39L47.92 7.39Q47.60 7.39 47.20 7.44Q46.80 7.49 46.39 7.56Q45.98 7.64 45.60 7.73Q45.21 7.82 44.91 7.89Q44.60 7.97 44.42 8.02Q44.24 8.06 44.25 8.06L44.25 8.06L44.25 14.47Q44.25 15.20 44.29 15.75Q44.32 16.30 44.37 16.71Q44.43 17.12 44.48 17.40Q44.54 17.67 44.58 17.84L44.58 17.84Q44.41 17.93 44.21 17.99Q44.00 18.06 43.78 18.11Q43.55 18.16 43.32 18.19Q43.09 18.21 42.90 18.21L42.90 18.21Q42.60 18.21 42.35 18.16Q42.11 18.11 41.92 17.98Q41.73 17.85 41.63 17.63Q41.53 17.41 41.53 17.09L41.53 17.09L41.53 7.17L39.47 7.17L39.47 6.29Q39.71 6.19 40.16 6.09Q40.61 6 41.14 5.94Q41.67 5.88 42.23 5.85Q42.79 5.81 43.24 5.81L43.24 5.81Q43.49 5.81 43.68 5.82Q43.86 5.84 43.99 5.89Q44.12 5.95 44.19 6.08Q44.25 6.20 44.25 6.43L44.25 6.43L44.25 7.01Q44.25 7.02 44.46 6.92Q44.66 6.82 45.02 6.67Q45.38 6.52 45.85 6.34Q46.32 6.16 46.86 6.01Q47.39 5.85 47.96 5.74Q48.53 5.64 49.07 5.64L49.07 5.64Q49.48 5.64 49.88 5.70Q50.27 5.77 50.62 5.92Q50.96 6.07 51.24 6.34Q51.52 6.61 51.67 7.01L51.67 7.01Q51.67 7.02 51.88 6.92Q52.09 6.82 52.45 6.67Q52.82 6.52 53.30 6.34Q53.78 6.16 54.32 6.01Q54.87 5.85 55.44 5.74Q56.00 5.64 56.55 5.64L56.55 5.64Q57.59 5.64 58.22 5.90Q58.85 6.16 59.19 6.64Q59.53 7.13 59.64 7.79Q59.75 8.46 59.75 9.27L59.75 9.27L59.75 16.83L61.79 16.83L61.79 17.71Q61.59 17.81 61.25 17.91Q60.90 18 60.48 18.07Q60.06 18.14 59.60 18.18Q59.14 18.21 58.72 18.21L58.72 18.21Q58.36 18.21 58.05 18.17Q57.75 18.13 57.52 18.01Q57.29 17.88 57.16 17.67Q57.04 17.45 57.04 17.09L57.04 17.09L57.04 9.43Q57.04 8.95 57 8.58Q56.96 8.20 56.83 7.94Q56.70 7.68 56.42 7.54Q56.14 7.39 55.68 7.39L55.68 7.39Q55.37 7.39 54.84 7.47Q54.32 7.55 53.75 7.65Q53.18 7.75 52.68 7.85Q52.17 7.96 51.93 8.02L51.93 8.02Q52.00 8.60 52.00 9.27L52.00 9.27ZM70.92 1.22L70.92 1.22Q72.30 1.22 73.45 1.46Q74.59 1.70 75.41 2.25Q76.23 2.80 76.68 3.70Q77.12 4.61 77.12 5.93L77.12 5.93Q77.12 6.22 77.06 6.59Q76.99 6.95 76.84 7.34Q76.69 7.72 76.45 8.09Q76.21 8.46 75.86 8.78Q75.50 9.09 75.03 9.32Q74.55 9.54 73.95 9.62L73.95 9.62Q74.94 9.73 75.63 10.05Q76.31 10.38 76.74 10.90Q77.17 11.41 77.36 12.08Q77.55 12.75 77.55 13.54L77.55 13.54Q77.55 14.93 77.01 15.84Q76.46 16.75 75.50 17.27Q74.54 17.80 73.25 18.01Q71.95 18.21 70.46 18.21L70.46 18.21Q69.27 18.21 68.23 18.16Q67.20 18.11 66.11 17.98L66.11 17.98Q65.58 17.92 65.38 17.70Q65.19 17.47 65.19 16.97L65.19 16.97L65.19 3.09L62.93 3.27L62.93 2.23Q63.47 2.00 64.34 1.82Q65.21 1.64 66.29 1.51Q67.36 1.37 68.55 1.30Q69.74 1.23 70.92 1.22ZM71.31 10.51L71.31 10.51Q70.95 10.49 70.61 10.49Q70.27 10.49 69.94 10.49L69.94 10.49Q69.53 10.49 69.18 10.49Q68.84 10.50 68.58 10.51L68.58 10.51Q68.27 10.52 68.03 10.54L68.03 10.54L68.03 16.32Q68.34 16.43 68.77 16.51L68.77 16.51Q69.13 16.58 69.64 16.64Q70.16 16.70 70.83 16.70L70.83 16.70Q72.07 16.70 72.84 16.42Q73.62 16.15 74.04 15.71Q74.47 15.28 74.62 14.75Q74.77 14.23 74.77 13.72L74.77 13.72Q74.77 13.03 74.58 12.46Q74.40 11.89 74.00 11.48Q73.59 11.06 72.93 10.82Q72.27 10.57 71.31 10.51ZM70.90 2.84L70.90 2.84Q70.29 2.84 69.76 2.85Q69.23 2.87 68.85 2.89Q68.46 2.92 68.24 2.94Q68.03 2.96 68.03 2.98L68.03 2.98L68.03 8.86Q68.59 8.96 69.04 9.01Q69.49 9.05 69.87 9.05L69.87 9.05Q71.13 9.05 72 8.79Q72.87 8.54 73.41 8.11Q73.95 7.68 74.19 7.10Q74.43 6.53 74.43 5.88L74.43 5.88Q74.43 5.18 74.23 4.62Q74.03 4.05 73.61 3.66Q73.18 3.27 72.52 3.06Q71.85 2.85 70.90 2.84ZM88.23 17.09L88.23 16.97Q88.23 16.97 88.07 17.07Q87.91 17.17 87.64 17.32Q87.36 17.47 86.99 17.65Q86.63 17.84 86.19 17.99Q85.75 18.15 85.27 18.26Q84.80 18.36 84.32 18.36L84.32 18.36Q83.55 18.36 82.86 18.16Q82.17 17.95 81.65 17.52Q81.13 17.09 80.82 16.43Q80.51 15.77 80.51 14.86L80.51 14.86Q80.51 13.85 80.96 13.15Q81.41 12.45 82.21 12.01Q83.02 11.57 84.13 11.37Q85.24 11.18 86.58 11.18L86.58 11.18L88.23 11.18L88.23 10.30Q88.23 9.62 88.18 8.99Q88.13 8.37 87.93 7.90Q87.74 7.43 87.37 7.15Q87 6.87 86.38 6.87L86.38 6.87Q85.78 6.87 85.18 7.08Q84.59 7.30 84.01 7.63Q83.44 7.96 82.91 8.35Q82.38 8.74 81.95 9.09L81.95 9.09L80.99 7.80Q80.81 7.59 80.81 7.37L80.81 7.37Q80.81 6.98 81.30 6.67Q81.79 6.35 82.52 6.12Q83.25 5.89 84.09 5.77Q84.94 5.64 85.66 5.64L85.66 5.64Q86.74 5.64 87.70 5.89Q88.66 6.15 89.38 6.71Q90.11 7.27 90.53 8.15Q90.95 9.04 90.95 10.30L90.95 10.30L90.95 16.83L92.99 16.83L92.99 17.71Q92.79 17.81 92.44 17.91Q92.10 18 91.68 18.07Q91.25 18.14 90.79 18.18Q90.33 18.21 89.91 18.21L89.91 18.21Q89.63 18.21 89.33 18.18Q89.04 18.14 88.80 18.02Q88.56 17.89 88.40 17.68Q88.24 17.46 88.23 17.09L88.23 17.09ZM85.14 16.63L85.14 16.63Q85.55 16.63 86.08 16.52Q86.61 16.41 87.09 16.28L87.09 16.28Q87.66 16.13 88.23 15.91L88.23 15.91L88.23 12.62L86.26 12.62Q85.82 12.62 85.28 12.70Q84.75 12.79 84.29 13.01Q83.82 13.24 83.51 13.65Q83.19 14.06 83.19 14.73L83.19 14.73Q83.19 15.15 83.32 15.50Q83.45 15.84 83.70 16.10Q83.94 16.35 84.30 16.49Q84.67 16.63 85.14 16.63ZM98.54 0.62L98.54 16.83L100.58 16.83L100.58 17.71Q100.38 17.81 100.04 17.91Q99.69 18 99.27 18.07Q98.85 18.14 98.39 18.18Q97.93 18.21 97.51 18.21L97.51 18.21Q97.15 18.21 96.84 18.17Q96.54 18.13 96.32 18.01Q96.09 17.88 95.96 17.67Q95.84 17.45 95.84 17.09L95.84 17.09L95.84 1.37L93.76 1.37L93.76 0.48Q94.01 0.38 94.46 0.28Q94.91 0.19 95.44 0.13Q95.96 0.07 96.52 0.04Q97.08 0 97.54 0L97.54 0Q97.78 0 97.97 0.01Q98.16 0.02 98.29 0.08Q98.41 0.14 98.48 0.26Q98.54 0.39 98.54 0.62L98.54 0.62ZM110.46 17.09L110.46 16.97Q110.46 16.97 110.30 17.07Q110.14 17.17 109.87 17.32Q109.59 17.47 109.22 17.65Q108.86 17.84 108.42 17.99Q107.98 18.15 107.50 18.26Q107.03 18.36 106.55 18.36L106.55 18.36Q105.79 18.36 105.09 18.16Q104.40 17.95 103.88 17.52Q103.36 17.09 103.05 16.43Q102.74 15.77 102.74 14.86L102.74 14.86Q102.74 13.85 103.19 13.15Q103.64 12.45 104.44 12.01Q105.25 11.57 106.36 11.37Q107.47 11.18 108.81 11.18L108.81 11.18L110.46 11.18L110.46 10.30Q110.46 9.62 110.41 8.99Q110.36 8.37 110.16 7.90Q109.97 7.43 109.60 7.15Q109.23 6.87 108.61 6.87L108.61 6.87Q108.01 6.87 107.41 7.08Q106.82 7.30 106.24 7.63Q105.67 7.96 105.14 8.35Q104.61 8.74 104.18 9.09L104.18 9.09L103.22 7.80Q103.04 7.59 103.04 7.37L103.04 7.37Q103.04 6.98 103.53 6.67Q104.02 6.35 104.75 6.12Q105.48 5.89 106.32 5.77Q107.17 5.64 107.89 5.64L107.89 5.64Q108.97 5.64 109.93 5.89Q110.89 6.15 111.62 6.71Q112.34 7.27 112.76 8.15Q113.18 9.04 113.18 10.30L113.18 10.30L113.18 16.83L115.22 16.83L115.22 17.71Q115.02 17.81 114.67 17.91Q114.33 18 113.91 18.07Q113.48 18.14 113.02 18.18Q112.56 18.21 112.14 18.21L112.14 18.21Q111.86 18.21 111.56 18.18Q111.27 18.14 111.03 18.02Q110.79 17.89 110.63 17.68Q110.47 17.46 110.46 17.09L110.46 17.09ZM107.37 16.63L107.37 16.63Q107.78 16.63 108.31 16.52Q108.84 16.41 109.32 16.28L109.32 16.28Q109.89 16.13 110.46 15.91L110.46 15.91L110.46 12.62L108.49 12.62Q108.05 12.62 107.51 12.70Q106.98 12.79 106.52 13.01Q106.05 13.24 105.74 13.65Q105.42 14.06 105.42 14.73L105.42 14.73Q105.42 15.15 105.55 15.50Q105.68 15.84 105.93 16.10Q106.17 16.35 106.54 16.49Q106.90 16.63 107.37 16.63ZM118.45 17.09L118.45 7.17L116.39 7.17L116.39 6.29Q116.64 6.19 117.08 6.09Q117.53 6 118.06 5.94Q118.59 5.88 119.15 5.85Q119.71 5.81 120.16 5.81L120.16 5.81Q120.41 5.81 120.60 5.82Q120.79 5.84 120.91 5.89Q121.04 5.95 121.11 6.08Q121.17 6.20 121.17 6.43L121.17 6.43L121.17 7.01Q121.35 6.95 121.82 6.73Q122.30 6.50 122.98 6.26Q123.66 6.02 124.46 5.83Q125.27 5.64 126.12 5.64L126.12 5.64Q127.14 5.64 127.77 5.92Q128.40 6.20 128.75 6.70Q129.11 7.20 129.23 7.88Q129.35 8.55 129.35 9.36L129.35 9.36L129.35 16.83L131.39 16.83L131.39 17.71Q131.19 17.81 130.85 17.91Q130.50 18 130.08 18.07Q129.66 18.14 129.20 18.18Q128.74 18.21 128.32 18.21L128.32 18.21Q127.96 18.21 127.65 18.17Q127.35 18.13 127.13 18.01Q126.90 17.88 126.77 17.67Q126.64 17.45 126.64 17.09L126.64 17.09L126.64 9.60Q126.64 9 126.58 8.58Q126.52 8.16 126.33 7.89Q126.15 7.62 125.83 7.49Q125.51 7.37 125.00 7.37L125.00 7.37Q124.68 7.37 124.28 7.42Q123.89 7.46 123.47 7.54Q123.06 7.62 122.67 7.70Q122.27 7.78 121.95 7.86Q121.63 7.93 121.42 7.99Q121.21 8.05 121.17 8.06L121.17 8.06L121.17 14.47Q121.17 15.20 121.21 15.75Q121.24 16.30 121.29 16.71Q121.35 17.12 121.41 17.40Q121.46 17.67 121.50 17.84L121.50 17.84Q121.34 17.93 121.13 17.99Q120.93 18.06 120.70 18.11Q120.47 18.16 120.24 18.19Q120.01 18.21 119.82 18.21L119.82 18.21Q119.52 18.21 119.27 18.16Q119.03 18.11 118.84 17.98Q118.65 17.85 118.55 17.63Q118.45 17.41 118.45 17.09L118.45 17.09ZM143.87 6.94L143.04 8.50Q142.65 8.27 142.18 8.02Q141.71 7.76 141.21 7.54Q140.70 7.32 140.17 7.18Q139.64 7.03 139.13 7.03L139.13 7.03Q138.33 7.03 137.77 7.42Q137.21 7.82 136.86 8.44Q136.50 9.07 136.34 9.83Q136.17 10.59 136.17 11.33L136.17 11.33Q136.17 12.48 136.48 13.49Q136.78 14.50 137.41 15.25Q138.05 16.00 139.01 16.42Q139.97 16.85 141.28 16.85L141.28 16.85Q142.01 16.85 142.78 16.72Q143.54 16.59 144.35 16.35L144.35 16.35L144.74 17.13Q144.26 17.46 143.70 17.70Q143.13 17.93 142.54 18.08Q141.94 18.22 141.33 18.29Q140.72 18.36 140.13 18.36L140.13 18.36Q138.86 18.36 137.65 17.96Q136.45 17.55 135.52 16.78Q134.59 16.00 134.03 14.85Q133.46 13.70 133.46 12.21L133.46 12.21Q133.46 10.68 134.01 9.46Q134.55 8.24 135.51 7.39Q136.46 6.54 137.77 6.09Q139.08 5.64 140.61 5.64L140.61 5.64Q140.73 5.64 141.02 5.65Q141.32 5.67 141.69 5.71Q142.05 5.75 142.45 5.83Q142.85 5.91 143.18 6.02Q143.51 6.14 143.72 6.30Q143.93 6.47 143.93 6.69L143.93 6.69Q143.93 6.75 143.92 6.81Q143.92 6.88 143.87 6.94L143.87 6.94ZM149.13 11.16L155.20 11.16Q155.27 10.92 155.30 10.69Q155.32 10.45 155.32 10.20L155.32 10.20Q155.32 9.62 155.13 9.04Q154.93 8.46 154.56 7.99Q154.20 7.52 153.65 7.23Q153.11 6.94 152.40 6.94L152.40 6.94Q151.50 6.94 150.90 7.28Q150.29 7.63 149.91 8.21Q149.53 8.79 149.36 9.56Q149.18 10.32 149.13 11.16L149.13 11.16ZM146.40 12L146.40 12Q146.40 10.61 146.85 9.44Q147.30 8.27 148.15 7.43Q149.00 6.59 150.23 6.11Q151.46 5.64 153.02 5.64L153.02 5.64Q154.20 5.64 155.12 6.01Q156.05 6.39 156.69 7.02Q157.34 7.65 157.68 8.48Q158.02 9.32 158.02 10.22L158.02 10.22Q158.02 10.64 157.95 11.06Q157.88 11.48 157.68 11.82Q157.48 12.16 157.11 12.38Q156.75 12.60 156.16 12.60L156.16 12.60L149.16 12.60Q149.27 13.65 149.71 14.46Q150.14 15.27 150.82 15.83Q151.50 16.38 152.39 16.66Q153.28 16.95 154.31 16.95L154.31 16.95Q155.02 16.95 155.77 16.82Q156.52 16.70 157.31 16.44L157.31 16.44L157.70 17.23Q157.22 17.55 156.67 17.79Q156.12 18.02 155.53 18.17Q154.95 18.32 154.34 18.39Q153.73 18.46 153.14 18.46L153.14 18.46Q151.85 18.46 150.64 18.05Q149.43 17.65 148.48 16.84Q147.54 16.03 146.97 14.82Q146.40 13.62 146.40 12Z" transform="translate(0, 50.429)"></path></svg>